<svg width="33" height="32" viewBox="0 0 33 32" fill="none" xmlns="http://www.w3.org/2000/svg">
<g id="icon-gradient-neutral-atlassian">
<g id="Group">
<g id="Group_2">
<path id="Vector" d="M11.1286 15.0811C10.7647 14.6808 10.2189 14.7172 9.96413 15.1903L4.06875 26.9447C3.85041 27.4177 4.17793 27.9636 4.6874 27.9636H12.8754C13.1302 27.9636 13.3849 27.818 13.4941 27.5633C15.3136 23.9606 14.2219 18.3927 11.1286 15.0811Z" fill="url(#paint0_linear)"/>
<path id="Vector_2" d="M15.4228 4.38211C12.1476 9.58605 12.366 15.3723 14.5131 19.7028C16.6965 24.0334 18.3341 27.3813 18.4797 27.5997C18.5889 27.8544 18.8436 28 19.0983 28H27.3228C27.8322 28 28.1961 27.4541 27.9414 26.981C27.9414 26.981 16.9149 4.92798 16.6237 4.38211C16.4054 3.87263 15.7504 3.87263 15.4228 4.38211Z" fill="#7A869A"/>
</g>
</g>
</g>
<defs>
<linearGradient id="paint0_linear" x1="14.3475" y1="16.905" x2="8.13438" y2="27.6665" gradientUnits="userSpaceOnUse">
<stop stop-color="#344563"/>
<stop offset="0.9228" stop-color="#7A869A"/>
</linearGradient>
</defs>
</svg>
