<svg width="33" height="32" viewBox="0 0 33 32" fill="none" xmlns="http://www.w3.org/2000/svg">
<g id="mini-icon-onecolor-neutral-atlassian">
<g id="Group">
<path id="Vector" d="M11.9015 15.2C11.7924 15.0546 11.5742 14.9818 11.3924 14.9818C11.247 15.0182 11.1015 15.1273 11.0288 15.2727L5.06515 27.2364C4.9197 27.4909 5.02878 27.8182 5.28333 27.9273C5.35606 27.9637 5.42879 28 5.50151 28H13.8288C14.0106 28 14.2288 27.8909 14.3015 27.7091C16.047 24.1091 14.9561 18.4728 11.9015 15.2Z" fill="#7A869A"/>
<path id="Vector_2" d="M28.9561 27.2364C28.847 27.0182 17.7561 4.83638 17.5015 4.29093C17.4288 4.14547 17.2833 4.03636 17.1015 4H17.0652C16.8833 4 16.7015 4.10911 16.5924 4.29093C13.5742 9.05456 13.247 14.8 15.6833 19.6727L19.6833 27.7091C19.7561 27.8909 19.9379 28 20.1561 28H28.4833C28.7742 28 28.9924 27.7818 28.9924 27.4909C28.9924 27.3818 28.9924 27.3091 28.9561 27.2364Z" fill="#7A869A"/>
</g>
</g>
</svg>
