<svg width="33" height="32" viewBox="0 0 33 32" fill="none" xmlns="http://www.w3.org/2000/svg">
<g id="mini-icon-contained-onecolor-white-atlassian">
<path id="Vector" d="M32.7998 0H0.799805V32H32.7998V0Z" fill="#0052CC"/>
<g id="Group">
<path id="Vector_2" d="M13.4398 15.48C13.3598 15.4 13.2398 15.3201 13.1198 15.3601C12.9998 15.3601 12.9198 15.4401 12.8798 15.5601L8.91981 23.4401C8.83981 23.6001 8.91981 23.8001 9.07981 23.9201C9.11981 23.9601 9.19981 23.9601 9.23981 23.9601H14.7198C14.8398 23.9601 14.9598 23.8801 15.0398 23.7601C16.1998 21.3601 15.4798 17.64 13.4398 15.48Z" fill="white"/>
<path id="Vector_3" d="M24.6799 23.4C24.5999 23.24 17.2799 8.60004 17.1199 8.24004C17.0799 8.12004 16.9599 8.08004 16.8399 8.04004C16.7199 8.04004 16.5999 8.12004 16.5199 8.24004C14.5199 11.4 14.3199 15.16 15.9199 18.4L18.5599 23.68C18.5999 23.8 18.7199 23.88 18.8799 23.88H24.3599C24.5599 23.88 24.7199 23.7201 24.7199 23.5201C24.7199 23.5201 24.7199 23.48 24.6799 23.4Z" fill="white"/>
</g>
</g>
</svg>
