<svg width="33" height="32" viewBox="0 0 33 32" fill="none" xmlns="http://www.w3.org/2000/svg">
<g id="mini-icon-contained-onecolor-neutral-atlassian">
<path id="Vector" d="M32.8999 0H0.899902V32H32.8999V0Z" fill="#EBECF0"/>
<g id="Group">
<path id="Vector_2" d="M13.5399 15.48C13.4599 15.4 13.3399 15.3201 13.2199 15.3601C13.0999 15.3601 13.0199 15.4401 12.9799 15.5601L9.01991 23.4401C8.93991 23.6001 9.01991 23.8001 9.17991 23.9201C9.21991 23.9601 9.29991 23.9601 9.33991 23.9601H14.8199C14.9399 23.9601 15.0599 23.8801 15.1399 23.7601C16.2999 21.3601 15.5799 17.64 13.5399 15.48Z" fill="#7A869A"/>
<path id="Vector_3" d="M24.78 23.4C24.7 23.24 17.38 8.60004 17.22 8.24004C17.18 8.12004 17.06 8.08004 16.94 8.04004C16.82 8.04004 16.7 8.12004 16.62 8.24004C14.62 11.4 14.42 15.16 16.02 18.4L18.66 23.68C18.7 23.8 18.82 23.88 18.98 23.88H24.46C24.66 23.88 24.82 23.7201 24.82 23.5201C24.82 23.5201 24.82 23.48 24.78 23.4Z" fill="#7A869A"/>
</g>
</g>
</svg>
