<svg width="32" height="32" viewBox="0 0 32 32" fill="none" xmlns="http://www.w3.org/2000/svg">
<g id="mini-icon-contained-onecolor-blue-atlassian">
<path id="Vector" d="M32 0H0V32H32V0Z" fill="#EBECF0"/>
<g id="Group">
<path id="Vector_2" d="M12.64 15.48C12.56 15.4 12.44 15.3201 12.32 15.3601C12.2 15.3601 12.12 15.4401 12.08 15.5601L8.12001 23.4401C8.04001 23.6001 8.12001 23.8001 8.28001 23.9201C8.32001 23.9601 8.40001 23.9601 8.44001 23.9601H13.92C14.04 23.9601 14.16 23.8801 14.24 23.7601C15.36 21.3601 14.68 17.64 12.64 15.48Z" fill="#0052CC"/>
<path id="Vector_3" d="M23.8801 23.4C23.8001 23.24 16.4801 8.60004 16.3201 8.24004C16.2801 8.12004 16.1601 8.08004 16.0401 8.04004C15.9201 8.04004 15.8001 8.12004 15.7201 8.24004C13.7201 11.4 13.5201 15.16 15.1201 18.4L17.7601 23.68C17.8001 23.8 17.9201 23.88 18.0801 23.88H23.5601C23.7601 23.88 23.9201 23.7201 23.9201 23.5201C23.9201 23.5201 23.9201 23.48 23.8801 23.4Z" fill="#0052CC"/>
</g>
</g>
</svg>
