<svg width="195" height="38" viewBox="0 0 195 38" fill="none" xmlns="http://www.w3.org/2000/svg">
<g id="mini-strapline-logo-onecolor-neutral-atlassian">
<g id="Group">
<g id="Group_2">
<path id="Vector" d="M34.5461 31.4549H35.2668V35.094C35.2668 36.0668 34.8344 36.7154 33.8616 36.7154C33.5012 36.7154 33.213 36.6433 32.9968 36.5712V35.8867C33.213 35.9587 33.4652 36.0308 33.7174 36.0308C34.33 36.0308 34.5101 35.6705 34.5101 35.1661V31.4549H34.5461ZM36.5639 31.1666C36.8521 31.1666 37.0323 31.3468 37.0323 31.635C37.0323 31.9233 36.8521 32.1034 36.5639 32.1034C36.2756 32.1034 36.0955 31.9233 36.0955 31.635C36.0955 31.3468 36.3116 31.1666 36.5639 31.1666ZM36.2396 32.7159H36.9242V36.6793H36.2396V32.7159ZM38.6176 36.6793H37.9691V32.7159H38.6176V33.4005C38.8338 32.9321 39.2302 32.6079 40.0228 32.6439V33.2924C39.1581 33.2204 38.6176 33.4726 38.6176 34.3013V36.6793ZM43.1935 35.9587C42.9413 36.4992 42.4729 36.7514 41.8604 36.7514C40.8155 36.7514 40.2751 35.8506 40.2751 34.6976C40.2751 33.5807 40.8155 32.6439 41.9325 32.6439C42.509 32.6439 42.9413 32.8961 43.1935 33.4366V32.752H43.8781V36.7154H43.1935V35.9587ZM42.0406 36.1028C42.6531 36.1028 43.1935 35.7065 43.1935 34.8418V34.5175C43.1935 33.6527 42.6891 33.2564 42.1126 33.2564C41.356 33.2564 40.9596 33.7608 40.9596 34.6976C40.9596 35.6344 41.356 36.1028 42.0406 36.1028ZM49.1386 31.0585H49.8232V37.4H49.1386V31.0585ZM58.975 36.4271C58.6508 36.6433 58.1463 36.7514 57.6059 36.7514C55.8764 36.7514 54.9396 35.7065 54.9396 34.0851C54.9396 32.4998 55.9124 31.3828 57.6059 31.3828C58.1103 31.3828 58.6148 31.4909 59.0111 31.7431V32.4277C58.6508 32.1755 58.2184 32.0674 57.6059 32.0674C56.3808 32.0674 55.6602 32.8601 55.6602 34.0851C55.6602 35.3102 56.4169 36.0668 57.6419 36.0668C58.1824 36.0668 58.6148 35.9227 59.0111 35.7425V36.4271H58.975ZM59.4795 34.6616C59.4795 33.4726 60.1641 32.6079 61.3531 32.6079C62.5421 32.6079 63.2267 33.4726 63.2267 34.6616C63.2267 35.8506 62.5421 36.7154 61.3531 36.7154C60.1641 36.7514 59.4795 35.8506 59.4795 34.6616ZM60.128 34.6616C60.128 35.4183 60.4884 36.1028 61.3531 36.1028C62.1818 36.1028 62.5421 35.4183 62.5421 34.6616C62.5421 33.905 62.1818 33.2564 61.3531 33.2564C60.4884 33.2564 60.128 33.905 60.128 34.6616ZM67.3702 36.6793H66.6857V34.3013C66.6857 33.5807 66.3974 33.2564 65.7488 33.2564C65.1003 33.2564 64.6679 33.6888 64.6679 34.4815V36.6793H63.9833V32.7159H64.6679V33.3645C64.9201 32.8961 65.3885 32.6439 65.929 32.6439C66.8298 32.6439 67.3702 33.2564 67.3702 34.3734V36.6793ZM69.2799 32.7159H70.2887V33.3645H69.2799V36.6793H68.6313V33.3645H67.9828V32.7159H68.6313V32.2836C68.6313 31.563 69.0276 31.0585 69.8924 31.0585C70.1086 31.0585 70.2167 31.0946 70.3608 31.1306V31.7431C70.2527 31.7071 70.1086 31.7071 69.9284 31.7071C69.4961 31.7071 69.3159 31.9593 69.3159 32.3196V32.7159H69.2799ZM72.0903 36.6793C71.4417 36.6793 71.0454 36.3551 71.0454 35.6345V31.0585H71.73V35.5984C71.73 35.9587 71.9822 36.0668 72.2704 36.0668C72.3425 36.0668 72.3785 36.0668 72.4506 36.0668V36.6793C72.3785 36.6793 72.2704 36.6793 72.0903 36.6793ZM73.0271 32.7159H73.7117V35.094C73.7117 35.8146 73.9999 36.1389 74.6485 36.1389C75.297 36.1389 75.7294 35.7065 75.7294 34.9138V32.7159H76.414V36.6793H75.7294V36.0308C75.4772 36.4992 75.0088 36.7514 74.4683 36.7514C73.5675 36.7514 73.0271 36.1389 73.0271 35.0219V32.7159ZM79.3325 36.7514C77.8552 36.7514 77.2067 35.8867 77.2067 34.6976C77.2067 33.5086 77.8552 32.6439 79.0802 32.6439C80.3053 32.6439 80.8097 33.5086 80.8097 34.6976V35.0219H77.9273C78.0354 35.7065 78.4677 36.1389 79.4045 36.1389C79.8729 36.1389 80.2693 36.0668 80.5936 35.9227V36.5352C80.2332 36.6793 79.7288 36.7514 79.3325 36.7514ZM77.8552 34.4094H80.0531C80.0171 33.6888 79.6928 33.2564 79.0082 33.2564C78.3236 33.2564 77.9273 33.7248 77.8552 34.4094ZM84.9533 36.6793H84.2687V34.3013C84.2687 33.5807 83.9805 33.2564 83.3319 33.2564C82.6834 33.2564 82.251 33.6888 82.251 34.4815V36.6793H81.5664V32.7159H82.251V33.3645C82.5032 32.8961 82.9716 32.6439 83.5121 32.6439C84.4128 32.6439 84.9533 33.2564 84.9533 34.3734V36.6793ZM88.7005 36.5712C88.4483 36.7154 88.088 36.7514 87.7276 36.7514C86.3224 36.7514 85.6739 35.8867 85.6739 34.6976C85.6739 33.5086 86.3224 32.6439 87.7276 32.6439C88.088 32.6439 88.3762 32.6799 88.6645 32.8241V33.4726C88.4123 33.3645 88.124 33.2924 87.7637 33.2924C86.7188 33.2924 86.3225 33.941 86.3225 34.6976C86.3225 35.4543 86.7548 36.1028 87.7997 36.1028C88.1961 36.1028 88.4483 36.0308 88.7005 35.9587V36.5712ZM91.3668 36.7514C89.8895 36.7514 89.241 35.8867 89.241 34.6976C89.241 33.5086 89.8895 32.6439 91.1146 32.6439C92.3396 32.6439 92.844 33.5086 92.844 34.6976V35.0219H89.9616C90.0697 35.7065 90.502 36.1389 91.4388 36.1389C91.9072 36.1389 92.3036 36.0668 92.6279 35.9227V36.5352C92.2676 36.6793 91.7631 36.7514 91.3668 36.7514ZM89.9255 34.4094H92.1234C92.0874 33.6888 91.7631 33.2564 91.0785 33.2564C90.3579 33.2564 89.9976 33.7248 89.9255 34.4094ZM97.8884 31.0585H98.5729V37.4H97.8884V31.0585ZM107.292 31.4549V32.1395H105.707V36.6793H104.986V32.1395H103.365V31.4549H107.292ZM108.301 36.6793H107.653V32.7159H108.301V33.4005C108.517 32.9321 108.914 32.6079 109.706 32.6439V33.2924C108.842 33.2204 108.301 33.4726 108.301 34.3013V36.6793ZM112.085 36.7514C110.607 36.7514 109.959 35.8867 109.959 34.6976C109.959 33.5086 110.607 32.6439 111.832 32.6439C113.057 32.6439 113.562 33.5086 113.562 34.6976V35.0219H110.679C110.787 35.7065 111.22 36.1389 112.157 36.1389C112.625 36.1389 113.021 36.0668 113.346 35.9227V36.5352C113.021 36.6793 112.517 36.7514 112.085 36.7514ZM110.643 34.4094H112.841C112.805 33.6888 112.481 33.2564 111.796 33.2564C111.076 33.2564 110.715 33.7248 110.643 34.4094ZM115.435 36.6793C114.787 36.6793 114.39 36.3551 114.39 35.6345V31.0585H115.075V35.5984C115.075 35.9587 115.327 36.0668 115.616 36.0668C115.688 36.0668 115.724 36.0668 115.796 36.0668V36.6793C115.724 36.6793 115.579 36.6793 115.435 36.6793ZM117.489 36.6793C116.841 36.6793 116.444 36.3551 116.444 35.6345V31.0585H117.129V35.5984C117.129 35.9587 117.381 36.0668 117.669 36.0668C117.741 36.0668 117.777 36.0668 117.849 36.0668V36.6793C117.777 36.6793 117.669 36.6793 117.489 36.6793ZM118.21 34.6616C118.21 33.4726 118.894 32.6079 120.083 32.6079C121.272 32.6079 121.957 33.4726 121.957 34.6616C121.957 35.8506 121.272 36.7154 120.083 36.7154C118.93 36.7514 118.21 35.8506 118.21 34.6616ZM118.894 34.6616C118.894 35.4183 119.255 36.1028 120.119 36.1028C120.948 36.1028 121.308 35.4183 121.308 34.6616C121.308 33.905 120.948 33.2564 120.119 33.2564C119.255 33.2564 118.894 33.905 118.894 34.6616ZM127.001 31.0585H127.686V37.4H127.001V31.0585ZM133.235 31.4549H135.432C136.477 31.4549 137.018 31.9953 137.018 32.8241C137.018 33.4366 136.73 33.8329 136.153 33.977C136.91 34.1211 137.306 34.5175 137.306 35.2741C137.306 36.1029 136.73 36.6793 135.577 36.6793H133.271V31.4549H133.235ZM133.955 32.1395V33.6888H135.324C136.009 33.6888 136.261 33.3645 136.261 32.8961C136.261 32.3917 135.973 32.1395 135.324 32.1395H133.955ZM133.955 34.3373V35.9587H135.577C136.261 35.9587 136.585 35.7065 136.585 35.2021C136.585 34.6616 136.297 34.3373 135.577 34.3373H133.955ZM138.423 31.1666C138.711 31.1666 138.891 31.3468 138.891 31.635C138.891 31.9233 138.711 32.1034 138.423 32.1034C138.135 32.1034 137.955 31.9233 137.955 31.635C137.955 31.3468 138.171 31.1666 138.423 31.1666ZM138.099 32.7159H138.783V36.6793H138.099V32.7159ZM141.378 36.0308C141.522 36.0308 141.702 35.9947 141.81 35.9587V36.6073C141.702 36.6433 141.558 36.6793 141.342 36.6793C140.477 36.6793 140.08 36.1749 140.08 35.4543V33.3285H139.432V32.6799H140.08V31.8512H140.729V32.6799H141.774V33.3285H140.729V35.4183C140.729 35.7786 140.945 36.0308 141.378 36.0308ZM143.359 35.9587V36.6433H142.675V31.0585H143.359V33.4366C143.611 32.8961 144.08 32.6439 144.692 32.6439C145.737 32.6439 146.278 33.5447 146.278 34.6976C146.278 35.8146 145.737 36.7514 144.62 36.7514C144.044 36.7514 143.575 36.4992 143.359 35.9587ZM144.512 33.2564C143.9 33.2564 143.359 33.6527 143.359 34.5175V34.8418C143.359 35.7065 143.864 36.1028 144.44 36.1028C145.197 36.1028 145.593 35.5984 145.593 34.6616C145.593 33.7248 145.197 33.2564 144.512 33.2564ZM146.998 32.7159H147.683V35.094C147.683 35.8146 147.971 36.1389 148.62 36.1389C149.268 36.1389 149.701 35.7065 149.701 34.9138V32.7159H150.385V36.6793H149.701V36.0308C149.448 36.4992 148.98 36.7514 148.44 36.7514C147.539 36.7514 146.998 36.1389 146.998 35.0219V32.7159ZM154.169 36.5712C153.916 36.7154 153.556 36.7514 153.196 36.7514C151.79 36.7514 151.142 35.8867 151.142 34.6976C151.142 33.5086 151.79 32.6439 153.196 32.6439C153.556 32.6439 153.844 32.6799 154.132 32.8241V33.4726C153.88 33.3645 153.592 33.2924 153.232 33.2924C152.187 33.2924 151.79 33.941 151.79 34.6976C151.79 35.4543 152.223 36.1028 153.268 36.1028C153.664 36.1028 153.916 36.0308 154.169 35.9587V36.5712ZM154.961 36.6793V31.0585H155.646V34.5535L157.339 32.7159H158.24L156.366 34.6616L158.312 36.6793H157.375L155.646 34.8418V36.6793H154.961ZM160.582 36.7514C159.105 36.7514 158.456 35.8867 158.456 34.6976C158.456 33.5086 159.105 32.6439 160.33 32.6439C161.555 32.6439 162.059 33.5086 162.059 34.6976V35.0219H159.177C159.285 35.7065 159.717 36.1389 160.654 36.1389C161.122 36.1389 161.519 36.0668 161.843 35.9227V36.5352C161.483 36.6793 160.978 36.7514 160.582 36.7514ZM159.105 34.4094H161.303C161.267 33.6888 160.942 33.2564 160.258 33.2564C159.573 33.2564 159.177 33.7248 159.105 34.4094ZM164.401 36.0308C164.545 36.0308 164.726 35.9947 164.834 35.9587V36.6073C164.726 36.6433 164.581 36.6793 164.365 36.6793C163.501 36.6793 163.104 36.1749 163.104 35.4543V33.3285H162.456V32.6799H163.104V31.8512H163.753V32.6799H164.798V33.3285H163.753V35.4183C163.789 35.7786 163.969 36.0308 164.401 36.0308Z" fill="#344665"/>
</g>
<g id="Layer 2 5">
<g id="Layer 1 2 5">
<g id="Group_3">
<g id="Group_4">
<g id="Group_5">
<g id="Group_6">
<g id="Group_7">
<path id="Vector_2" d="M122.065 18.0515C122.065 14.6285 120.227 13.0071 115.111 11.8902C112.265 11.2776 111.58 10.6291 111.58 9.72832C111.58 8.61137 112.589 8.10694 114.462 8.10694C116.732 8.10694 118.966 8.79154 121.092 9.76437V5.26051C119.615 4.50387 117.309 3.92737 114.607 3.92737C109.526 3.92737 106.896 6.12525 106.896 9.76437C106.896 12.6468 108.229 14.9528 113.49 15.9617C116.624 16.6102 117.273 17.1147 117.273 18.1595C117.273 19.1684 116.624 19.817 114.39 19.817C111.832 19.817 108.77 18.9522 106.788 17.7632V22.4832C108.373 23.2759 110.463 24.1407 114.354 24.1407C119.867 24.1407 122.065 21.6906 122.065 18.0515Z" fill="#7A869A"/>
<path id="Vector_3" d="M177.48 4.21558V23.8524H181.66V8.89958L183.425 12.863L189.334 23.8524H194.595V4.21558H190.415V16.8984L188.83 13.2233L184.074 4.21558H177.48Z" fill="#7A869A"/>
<path id="Vector_4" d="M150.926 4.21558H146.35V23.8164H150.926V4.21558Z" fill="#7A869A"/>
<path id="Vector_5" d="M141.053 18.0515C141.053 14.6285 139.216 13.0071 134.099 11.8902C131.253 11.2776 130.568 10.6291 130.568 9.72832C130.568 8.61137 131.577 8.10694 133.451 8.10694C135.721 8.10694 137.955 8.79154 140.08 9.76437V5.26051C138.603 4.50387 136.297 3.92737 133.595 3.92737C128.514 3.92737 125.884 6.12525 125.884 9.76437C125.884 12.6468 127.217 14.9528 132.478 15.9617C135.613 16.6102 136.261 17.1147 136.261 18.1595C136.261 19.1684 135.613 19.817 133.379 19.817C130.82 19.817 127.758 18.9522 125.776 17.7632V22.4832C127.361 23.2759 129.451 24.1407 133.343 24.1407C138.891 24.1407 141.053 21.6906 141.053 18.0515Z" fill="#7A869A"/>
<path id="Vector_6" d="M71.4417 4.21558V23.8524H80.8097L82.2869 19.6007H76.0175V4.21558H71.4417Z" fill="#7A869A"/>
<path id="Vector_7" d="M52.8857 4.21558V8.46721H57.9661V23.8524H62.542V8.46721H67.9826V4.21558H52.8857Z" fill="#7A869A"/>
</g>
</g>
<path id="Vector_8" d="M46.2199 4.21558H40.2028L33.3569 23.8164H38.5814L39.5542 20.5015C40.7072 20.8258 41.9323 21.042 43.2294 21.042C44.4904 21.042 45.7155 20.8618 46.9045 20.5015L47.8774 23.8164H53.1018L46.2199 4.21558ZM43.1933 17.0065C42.3286 17.0065 41.4639 16.8624 40.6712 16.6462L43.1933 8.07088L45.7155 16.6462C44.9228 16.8624 44.0941 17.0065 43.1933 17.0065Z" fill="#7A869A"/>
<path id="Vector_9" d="M97.0234 4.21558H91.0063L84.1604 23.8164H89.3849L90.3577 20.5015C91.5107 20.8258 92.7357 21.042 94.0328 21.042C95.2939 21.042 96.519 20.8618 97.708 20.5015L98.6808 23.8164H103.905L97.0234 4.21558ZM93.9968 17.0065C93.1321 17.0065 92.2673 16.8624 91.4747 16.6462L93.9968 8.07088L96.519 16.6462C95.7263 16.8624 94.8616 17.0065 93.9968 17.0065Z" fill="#7A869A"/>
<path id="Vector_10" d="M167.356 4.21558H161.339L154.493 23.8164H159.717L160.69 20.5015C161.843 20.8258 163.068 21.042 164.365 21.042C165.626 21.042 166.851 20.8618 168.04 20.5015L169.013 23.8164H174.238L167.356 4.21558ZM164.365 17.0065C163.5 17.0065 162.636 16.8624 161.843 16.6462L164.365 8.07088L166.887 16.6462C166.059 16.8624 165.23 17.0065 164.365 17.0065Z" fill="#7A869A"/>
</g>
</g>
<g id="Group_8">
<path id="Vector_11" d="M6.87439 11.1336C6.76629 10.9894 6.5501 10.9174 6.36995 10.9174C6.22582 10.9534 6.0817 11.0615 6.00964 11.2056L0.06455 23.0958C-0.0795733 23.348 0.0285324 23.6723 0.280748 23.7804C0.35281 23.8164 0.424863 23.8524 0.496924 23.8524H8.78402C8.96417 23.8524 9.18035 23.7443 9.25241 23.5642C11.0179 19.9611 9.93701 14.4124 6.87439 11.1336Z" fill="#7A869A"/>
<path id="Vector_12" d="M23.8448 23.0958C23.7367 22.8796 12.7113 0.828705 12.4591 0.288242C12.387 0.144119 12.2429 0.0360308 12.0627 0H12.0267C11.8466 0 11.6664 0.108088 11.5583 0.288242C8.56776 5.00828 8.24348 10.7372 10.6575 15.5653L14.657 23.5281C14.729 23.7083 14.9092 23.8164 15.1254 23.8164H23.4124C23.7007 23.8164 23.9169 23.6002 23.9169 23.312C23.8809 23.2399 23.8808 23.1678 23.8448 23.0958Z" fill="#7A869A"/>
</g>
</g>
</g>
</g>
</g>
</g>
</svg>
