<svg width="195" height="38" viewBox="0 0 195 38" fill="none" xmlns="http://www.w3.org/2000/svg">
<g id="strapline-logo-gradient-blue-atlassian">
<g id="Group">
<g id="Group_2">
<g id="Group_3">
<path id="Vector" d="M7.04039 11.0258C6.68099 10.6294 6.14188 10.6655 5.89029 11.1339L0.0679016 22.8437C-0.147743 23.3121 0.175724 23.8526 0.678893 23.8526H8.80149C9.05307 23.8526 9.30466 23.7085 9.41248 23.4563C11.2095 19.8172 10.1313 14.3045 7.04039 11.0258Z" fill="url(#paint0_linear)"/>
<path id="Vector_2" d="M11.3175 0.360786C8.04685 5.54916 8.2625 11.278 10.4189 15.6016C12.5754 19.9253 14.2286 23.204 14.3365 23.4562C14.4443 23.7085 14.6959 23.8526 14.9475 23.8526H23.0701C23.5732 23.8526 23.9326 23.3121 23.681 22.8437C23.681 22.8437 12.7551 0.937272 12.4676 0.396816C12.2879 -0.107609 11.6409 -0.143639 11.3175 0.360786Z" fill="#2684FF"/>
</g>
</g>
<g id="Group_4">
<path id="Vector_3" d="M34.4273 31.455H35.1461V35.0941C35.1461 36.0669 34.7148 36.7154 33.7444 36.7154C33.385 36.7154 33.0975 36.6434 32.8818 36.5713V35.8867C33.0975 35.9588 33.3491 36.0309 33.6006 36.0309C34.2116 36.0309 34.3913 35.6706 34.3913 35.1661V31.455H34.4273Z" fill="#344665"/>
<path id="Vector_4" d="M36.4399 31.1667C36.7274 31.1667 36.9071 31.3469 36.9071 31.6351C36.9071 31.9234 36.7274 32.1035 36.4399 32.1035C36.1524 32.1035 35.9727 31.9234 35.9727 31.6351C35.9727 31.3469 36.1883 31.1667 36.4399 31.1667ZM36.1164 32.68H36.7993V36.6434H36.1164V32.68Z" fill="#344665"/>
<path id="Vector_5" d="M38.4887 36.6794H37.8418V32.7161H38.4887V33.4006C38.7044 32.9322 39.0997 32.608 39.8904 32.644V33.2925C39.0278 33.2205 38.4887 33.4727 38.4887 34.3014V36.6794Z" fill="#344665"/>
<path id="Vector_6" d="M43.0528 35.9588C42.8012 36.4992 42.334 36.7515 41.723 36.7515C40.6807 36.7515 40.1416 35.8507 40.1416 34.6977C40.1416 33.5808 40.6807 32.644 41.7949 32.644C42.3699 32.644 42.8012 32.8962 43.0528 33.4367V32.7521H43.7357V36.7154H43.0528V35.9588ZM41.9027 36.1029C42.5137 36.1029 43.0528 35.7066 43.0528 34.8418V34.5176C43.0528 33.6528 42.5496 33.2565 41.9746 33.2565C41.2198 33.2565 40.8245 33.7609 40.8245 34.6977C40.8245 35.6345 41.2198 36.1029 41.9027 36.1029Z" fill="#344665"/>
<path id="Vector_7" d="M48.9834 31.0587H49.6663V37.4H48.9834V31.0587Z" fill="#8993A4"/>
<path id="Vector_8" d="M58.7951 36.4272C58.4717 36.6434 57.9685 36.7515 57.4294 36.7515C55.7042 36.7515 54.7698 35.7066 54.7698 34.0852C54.7698 32.4999 55.7402 31.3829 57.4294 31.3829C57.9326 31.3829 58.4357 31.491 58.8311 31.7432V32.4278C58.4717 32.1756 58.0404 32.0675 57.4294 32.0675C56.2074 32.0675 55.4886 32.8602 55.4886 34.0852C55.4886 35.3102 56.2433 36.0669 57.4653 36.0669C58.0044 36.0669 58.4357 35.9228 58.8311 35.7426V36.4272H58.7951Z" fill="#344665"/>
<path id="Vector_9" d="M59.2983 34.6617C59.2983 33.4727 59.9812 32.608 61.1672 32.608C62.3533 32.608 63.0362 33.4727 63.0362 34.6617C63.0362 35.8507 62.3533 36.7154 61.1672 36.7154C59.9812 36.7515 59.2983 35.8507 59.2983 34.6617ZM59.9453 34.6617C59.9453 35.4183 60.3047 36.1029 61.1672 36.1029C61.9939 36.1029 62.3533 35.4183 62.3533 34.6617C62.3533 33.9051 61.9939 33.2565 61.1672 33.2565C60.3047 33.2565 59.9453 33.9051 59.9453 34.6617Z" fill="#344665"/>
<path id="Vector_10" d="M67.1692 36.6794H66.4863V34.3014C66.4863 33.5808 66.1988 33.2565 65.5519 33.2565C64.9049 33.2565 64.4736 33.6889 64.4736 34.4815V36.6794H63.7908V32.7161H64.4736V33.3646C64.7252 32.8962 65.1925 32.644 65.7316 32.644C66.6301 32.644 67.1692 33.2565 67.1692 34.3735V36.6794Z" fill="#344665"/>
<path id="Vector_11" d="M69.0741 32.68H70.0805V33.3286H69.0741V36.6434H68.4272V33.3286H67.7803V32.68H68.4272V32.2477C68.4272 31.5271 68.8226 31.0226 69.6851 31.0226C69.9008 31.0226 70.0086 31.0587 70.1524 31.0947V31.7072C70.0445 31.6712 69.9008 31.6712 69.7211 31.6712C69.2898 31.6712 69.1101 31.9234 69.1101 32.2837V32.68H69.0741Z" fill="#344665"/>
<path id="Vector_12" d="M71.8775 36.6794C71.2305 36.6794 70.8352 36.3551 70.8352 35.6345V31.0587H71.5181V35.5985C71.5181 35.9588 71.7697 36.0669 72.0572 36.0669C72.1291 36.0669 72.165 36.0669 72.2369 36.0669V36.6794C72.165 36.6794 72.0572 36.6794 71.8775 36.6794Z" fill="#344665"/>
<path id="Vector_13" d="M72.8118 32.68H73.4946V35.058C73.4946 35.7786 73.7822 36.1029 74.4291 36.1029C75.076 36.1029 75.5073 35.6705 75.5073 34.8779V32.68H76.1902V36.6434H75.5073V35.9948C75.2557 36.4632 74.7885 36.7154 74.2494 36.7154C73.3509 36.7154 72.8118 36.1029 72.8118 34.986V32.68Z" fill="#344665"/>
<path id="Vector_14" d="M79.1015 36.7515C77.6279 36.7515 76.981 35.8867 76.981 34.6977C76.981 33.5087 77.6279 32.644 78.8499 32.644C80.0719 32.644 80.575 33.5087 80.575 34.6977V35.022H77.6998C77.8076 35.7066 78.2389 36.1389 79.1733 36.1389C79.6406 36.1389 80.0359 36.0669 80.3594 35.9228V36.5353C80 36.6794 79.4968 36.7515 79.1015 36.7515ZM77.6279 34.4095H79.8203C79.7843 33.6889 79.4609 33.2565 78.778 33.2565C78.0951 33.2205 77.6998 33.6889 77.6279 34.4095Z" fill="#344665"/>
<path id="Vector_15" d="M84.7085 36.6794H84.0256V34.3014C84.0256 33.5808 83.7381 33.2565 83.0912 33.2565C82.4442 33.2565 82.0129 33.6889 82.0129 34.4815V36.6794H81.3301V32.7161H82.0129V33.3646C82.2645 32.8962 82.7318 32.644 83.2709 32.644C84.1694 32.644 84.7085 33.2565 84.7085 34.3735V36.6794Z" fill="#344665"/>
<path id="Vector_16" d="M88.446 36.5713C88.1944 36.7154 87.835 36.7515 87.4756 36.7515C86.0739 36.7515 85.427 35.8867 85.427 34.6977C85.427 33.5087 86.0739 32.644 87.4756 32.644C87.835 32.644 88.1225 32.68 88.4101 32.8241V33.4727C88.1585 33.3646 87.871 33.2925 87.5116 33.2925C86.4693 33.2925 86.0739 33.9411 86.0739 34.6977C86.0739 35.4544 86.5052 36.1029 87.5475 36.1029C87.9428 36.1029 88.1944 36.0309 88.446 35.9588V36.5713Z" fill="#344665"/>
<path id="Vector_17" d="M91.1056 36.7515C89.632 36.7515 88.9851 35.8867 88.9851 34.6977C88.9851 33.5087 89.632 32.644 90.854 32.644C92.076 32.644 92.5792 33.5087 92.5792 34.6977V35.022H89.7039C89.8117 35.7066 90.243 36.1389 91.1775 36.1389C91.6447 36.1389 92.0401 36.0669 92.3635 35.9228V36.5353C92.0041 36.6794 91.5009 36.7515 91.1056 36.7515ZM89.668 34.4095H91.8604C91.8244 33.6889 91.5009 33.2565 90.8181 33.2565C90.0993 33.2205 89.7399 33.6889 89.668 34.4095Z" fill="#344665"/>
<path id="Vector_18" d="M97.6108 31.0587H98.2937V37.4H97.6108V31.0587Z" fill="#8993A4"/>
<path id="Vector_19" d="M106.991 31.455V32.1396H105.41V36.6794H104.691V32.1396H103.11V31.455H106.991Z" fill="#344665"/>
<path id="Vector_20" d="M107.998 36.6794H107.351V32.7161H107.998V33.4006C108.213 32.9322 108.609 32.608 109.399 32.644V33.2925C108.537 33.2205 107.998 33.4727 107.998 34.3014V36.6794Z" fill="#344665"/>
<path id="Vector_21" d="M111.772 36.7515C110.298 36.7515 109.651 35.8867 109.651 34.6977C109.651 33.5087 110.298 32.644 111.52 32.644C112.742 32.644 113.245 33.5087 113.245 34.6977V35.022H110.37C110.478 35.7066 110.909 36.1389 111.844 36.1389C112.311 36.1389 112.706 36.0669 113.03 35.9228V36.5353C112.706 36.6794 112.203 36.7515 111.772 36.7515ZM110.334 34.4095H112.526C112.49 33.6889 112.167 33.2565 111.484 33.2565C110.765 33.2205 110.406 33.6889 110.334 34.4095Z" fill="#344665"/>
<path id="Vector_22" d="M115.114 36.6794C114.467 36.6794 114.072 36.3551 114.072 35.6345V31.0587H114.755V35.5985C114.755 35.9588 115.006 36.0669 115.294 36.0669C115.366 36.0669 115.402 36.0669 115.473 36.0669V36.6794C115.402 36.6794 115.258 36.6794 115.114 36.6794Z" fill="#344665"/>
<path id="Vector_23" d="M117.163 36.6794C116.516 36.6794 116.12 36.3551 116.12 35.6345V31.0587H116.803V35.5985C116.803 35.9588 117.055 36.0669 117.342 36.0669C117.414 36.0669 117.45 36.0669 117.522 36.0669V36.6794C117.45 36.6794 117.342 36.6794 117.163 36.6794Z" fill="#344665"/>
<path id="Vector_24" d="M117.882 34.6617C117.882 33.4727 118.564 32.608 119.751 32.608C120.937 32.608 121.619 33.4727 121.619 34.6617C121.619 35.8507 120.937 36.7154 119.751 36.7154C118.6 36.7515 117.882 35.8507 117.882 34.6617ZM118.564 34.6617C118.564 35.4183 118.924 36.1029 119.786 36.1029C120.613 36.1029 120.972 35.4183 120.972 34.6617C120.972 33.9051 120.613 33.2565 119.786 33.2565C118.924 33.2565 118.564 33.9051 118.564 34.6617Z" fill="#344665"/>
<path id="Vector_25" d="M126.651 31.0587H127.334V37.4H126.651V31.0587Z" fill="#8993A4"/>
<path id="Vector_26" d="M132.869 31.455H135.061C136.103 31.455 136.642 31.9955 136.642 32.8242C136.642 33.4367 136.355 33.833 135.78 33.9771C136.535 34.1212 136.93 34.5176 136.93 35.2742C136.93 36.1029 136.355 36.6794 135.205 36.6794H132.905V31.455H132.869ZM133.587 32.1396V33.6889H134.953C135.636 33.6889 135.888 33.3646 135.888 32.8962C135.888 32.3918 135.6 32.1396 134.953 32.1396H133.587ZM133.587 34.3374V35.9588H135.205C135.888 35.9588 136.211 35.7066 136.211 35.2022C136.211 34.6617 135.924 34.3374 135.205 34.3374H133.587Z" fill="#344665"/>
<path id="Vector_27" d="M138.044 31.1667C138.332 31.1667 138.512 31.3469 138.512 31.6351C138.512 31.9234 138.332 32.1035 138.044 32.1035C137.757 32.1035 137.577 31.9234 137.577 31.6351C137.577 31.3469 137.793 31.1667 138.044 31.1667ZM137.721 32.68H138.404V36.6434H137.721V32.68Z" fill="#344665"/>
<path id="Vector_28" d="M140.991 36.0309C141.135 36.0309 141.315 35.9948 141.423 35.9588V36.6073C141.315 36.6434 141.171 36.6794 140.955 36.6794C140.093 36.6794 139.697 36.175 139.697 35.4544V33.3286H139.051V32.68H139.697V31.8513H140.344V32.68H141.387V33.3286H140.344V35.4183C140.344 35.7786 140.56 36.0309 140.991 36.0309Z" fill="#344665"/>
<path id="Vector_29" d="M142.968 35.9588V36.6434H142.285V31.0587H142.968V33.4367C143.22 32.8962 143.687 32.644 144.298 32.644C145.34 32.644 145.879 33.5448 145.879 34.6977C145.879 35.8147 145.34 36.7515 144.226 36.7515C143.651 36.7515 143.184 36.4632 142.968 35.9588ZM144.118 33.2565C143.507 33.2565 142.968 33.6529 142.968 34.5176V34.8419C142.968 35.7066 143.471 36.1029 144.046 36.1029C144.801 36.1029 145.196 35.5985 145.196 34.6617C145.196 33.7249 144.801 33.2565 144.118 33.2565Z" fill="#344665"/>
<path id="Vector_30" d="M146.598 32.68H147.281V35.058C147.281 35.7786 147.569 36.1029 148.215 36.1029C148.862 36.1029 149.294 35.6705 149.294 34.8779V32.68H149.977V36.6434H149.294V35.9948C149.042 36.4632 148.575 36.7154 148.036 36.7154C147.137 36.7154 146.598 36.1029 146.598 34.986V32.68Z" fill="#344665"/>
<path id="Vector_31" d="M153.75 36.5713C153.499 36.7154 153.139 36.7515 152.78 36.7515C151.378 36.7515 150.731 35.8867 150.731 34.6977C150.731 33.5087 151.378 32.644 152.78 32.644C153.139 32.644 153.427 32.68 153.715 32.8241V33.4727C153.463 33.3646 153.175 33.2925 152.816 33.2925C151.774 33.2925 151.378 33.9411 151.378 34.6977C151.378 35.4544 151.81 36.1029 152.852 36.1029C153.247 36.1029 153.499 36.0309 153.75 35.9588V36.5713Z" fill="#344665"/>
<path id="Vector_32" d="M154.541 36.6794V31.0587H155.224V34.5536L156.913 32.7161H157.812L155.943 34.6617L157.883 36.6794H156.949L155.224 34.8419V36.6794H154.541Z" fill="#344665"/>
<path id="Vector_33" d="M160.148 36.7515C158.674 36.7515 158.027 35.8867 158.027 34.6977C158.027 33.5087 158.674 32.644 159.896 32.644C161.118 32.644 161.621 33.5087 161.621 34.6977V35.022H158.746C158.854 35.7066 159.285 36.1389 160.219 36.1389C160.687 36.1389 161.082 36.0669 161.405 35.9228V36.5353C161.046 36.6794 160.543 36.7515 160.148 36.7515ZM158.674 34.4095H160.866C160.83 33.6889 160.507 33.2565 159.824 33.2565C159.141 33.2205 158.746 33.6889 158.674 34.4095Z" fill="#344665"/>
<path id="Vector_34" d="M163.958 36.0309C164.101 36.0309 164.281 35.9948 164.389 35.9588V36.6073C164.281 36.6434 164.137 36.6794 163.922 36.6794C163.059 36.6794 162.664 36.175 162.664 35.4544V33.3286H162.017V32.68H162.664V31.8513H163.311V32.68H164.353V33.3286H163.311V35.4183C163.347 35.7786 163.526 36.0309 163.958 36.0309Z" fill="#344665"/>
</g>
<g id="Group_5">
<g id="Group_6">
<g id="Group_7">
<g id="Group_8">
<path id="Vector_35" d="M121.727 18.0517C121.727 14.6288 119.894 13.0074 114.79 11.8905C111.951 11.278 111.268 10.6294 111.268 9.72868C111.268 8.61174 112.274 8.10732 114.143 8.10732C116.408 8.10732 118.636 8.79189 120.756 9.76471V5.26092C119.283 4.50428 116.983 3.9278 114.287 3.9278C109.22 3.9278 106.596 6.12565 106.596 9.76471C106.596 12.6471 107.926 14.9531 113.173 15.9619C116.3 16.6105 116.947 17.1149 116.947 18.1598C116.947 19.1686 116.3 19.8172 114.072 19.8172C111.52 19.8172 108.465 18.9525 106.488 17.7635V22.4834C108.069 23.2761 110.154 24.1408 114.036 24.1408C119.535 24.1408 121.727 21.6908 121.727 18.0517Z" fill="#0052CC"/>
<path id="Vector_36" d="M177.004 4.21603V23.8526H181.173V8.89998L182.934 12.8633L188.828 23.8526H194.076V4.21603H189.907V16.8987L188.325 13.2236L183.581 4.21603H177.004Z" fill="#0052CC"/>
<path id="Vector_37" d="M150.516 4.21603H145.951V23.8166H150.516V4.21603Z" fill="#0052CC"/>
<path id="Vector_38" d="M140.668 18.0517C140.668 14.6288 138.835 13.0074 133.731 11.8905C130.892 11.278 130.209 10.6294 130.209 9.72868C130.209 8.61174 131.215 8.10732 133.084 8.10732C135.349 8.10732 137.577 8.79189 139.697 9.76471V5.26092C138.224 4.50428 135.924 3.9278 133.228 3.9278C128.16 3.9278 125.537 6.12565 125.537 9.76471C125.537 12.6471 126.867 14.9531 132.114 15.9619C135.241 16.6105 135.888 17.1149 135.888 18.1598C135.888 19.1686 135.241 19.8172 133.012 19.8172C130.461 19.8172 127.406 18.9525 125.429 17.7635V22.4834C127.01 23.2761 129.095 24.1408 132.976 24.1408C138.511 24.1408 140.668 21.6908 140.668 18.0517Z" fill="#0052CC"/>
<path id="Vector_39" d="M71.2305 4.21603V23.8526H80.575L82.0486 19.601H75.7949V4.21603H71.2305Z" fill="#0052CC"/>
<path id="Vector_40" d="M52.7209 4.2168V8.46839H57.7886V23.8534H62.3531V8.46839H67.7801V4.2168H52.7209Z" fill="#0052CC"/>
</g>
</g>
<path id="Vector_41" d="M46.072 4.2168H40.0699L33.2412 23.8173H38.4526L39.423 20.5025C40.5731 20.8268 41.7951 21.043 43.089 21.043C44.3469 21.043 45.5689 20.8628 46.7549 20.5025L47.7253 23.8173H52.9367L46.072 4.2168ZM43.053 17.0076C42.1904 17.0076 41.3279 16.8635 40.5372 16.6473L43.053 8.07205L45.5689 16.6473C44.7782 16.8635 43.9515 17.0076 43.053 17.0076Z" fill="#0052CC"/>
<path id="Vector_42" d="M96.7483 4.21603H90.7462L83.9175 23.8166H89.1289L90.0993 20.5018C91.2494 20.826 92.4714 21.0422 93.7652 21.0422C95.0231 21.0422 96.2451 20.8621 97.4312 20.5018L98.4016 23.8166H103.613L96.7483 4.21603ZM93.7293 17.0068C92.8667 17.0068 92.0041 16.8627 91.2134 16.6465L93.7293 8.07128L96.2451 16.6465C95.4544 16.8627 94.5919 17.0068 93.7293 17.0068Z" fill="#0052CC"/>
<path id="Vector_43" d="M166.905 4.21603H160.902L154.074 23.8166H159.285L160.256 20.5018C161.406 20.826 162.628 21.0422 163.921 21.0422C165.179 21.0422 166.401 20.8621 167.587 20.5018L168.558 23.8166H173.769L166.905 4.21603ZM163.921 17.0068C163.059 17.0068 162.196 16.8627 161.406 16.6465L163.921 8.07128L166.437 16.6465C165.611 16.8627 164.784 17.0068 163.921 17.0068Z" fill="#0052CC"/>
</g>
</g>
</g>
</g>
<defs>
<linearGradient id="paint0_linear" x1="10.2524" y1="12.8168" x2="4.07222" y2="23.4945" gradientUnits="userSpaceOnUse">
<stop stop-color="#0052CC"/>
<stop offset="0.9228" stop-color="#2684FF"/>
</linearGradient>
</defs>
</svg>
