<svg width="195" height="38" viewBox="0 0 195 38" fill="none" xmlns="http://www.w3.org/2000/svg">
<g id="strapline-logo-gradient-white-atlassian">
<g id="Group">
<g id="Group_2">
<g id="Group_3">
<g id="Group_4">
<path id="Vector" d="M7.05797 11.0258C6.69767 10.6294 6.15719 10.6655 5.90497 11.1339L0.0680731 22.8437C-0.148109 23.3121 0.176147 23.8526 0.680572 23.8526H8.82347C9.07568 23.8526 9.32788 23.7085 9.43597 23.4563C11.2015 19.8172 10.1206 14.3045 7.05797 11.0258Z" fill="url(#paint0_linear)"/>
<path id="Vector_2" d="M11.3456 0.360786C8.06688 5.54916 8.28307 11.278 10.4449 15.6016C12.6067 19.9253 14.2641 23.204 14.3722 23.4562C14.4803 23.7085 14.7325 23.8526 14.9847 23.8526H23.1276C23.632 23.8526 23.9923 23.3121 23.7401 22.8437C23.7401 22.8437 12.7868 0.937272 12.4986 0.396816C12.2824 -0.107609 11.6699 -0.143639 11.3456 0.360786Z" fill="white"/>
</g>
</g>
<g id="Group_5">
<path id="Vector_3" d="M34.333 31.455H35.0536V35.0941C35.0536 36.0669 34.6212 36.7154 33.6484 36.7154C33.2881 36.7154 32.9999 36.6434 32.7837 36.5713V35.8867C32.9999 35.9588 33.2521 36.0309 33.5043 36.0309C34.1168 36.0309 34.2969 35.6706 34.2969 35.1661V31.455H34.333Z" fill="white"/>
<path id="Vector_4" d="M36.3146 31.1667C36.6028 31.1667 36.783 31.3469 36.783 31.6351C36.783 31.9234 36.6028 32.1035 36.3146 32.1035C36.0263 32.1035 35.8462 31.9234 35.8462 31.6351C35.8462 31.3469 36.0623 31.1667 36.3146 31.1667ZM35.9903 32.68H36.6749V36.6434H35.9903V32.68Z" fill="white"/>
<path id="Vector_5" d="M38.3683 36.6794H37.7197V32.7161H38.3683V33.4006C38.5845 32.9322 38.9808 32.608 39.7734 32.644V33.2925C38.9087 33.2205 38.3683 33.4727 38.3683 34.3014V36.6794Z" fill="white"/>
<path id="Vector_6" d="M42.9443 35.9588C42.6921 36.4992 42.2237 36.7515 41.6112 36.7515C40.5663 36.7515 40.0259 35.8507 40.0259 34.6977C40.0259 33.5808 40.5663 32.644 41.6833 32.644C42.2598 32.644 42.6921 32.8962 42.9443 33.4367V32.7521H43.6289V36.7154H42.9443V35.9588ZM41.7914 36.1029C42.4039 36.1029 42.9443 35.7066 42.9443 34.8418V34.5176C42.9443 33.6528 42.4399 33.2565 41.8634 33.2565C41.1068 33.2565 40.7105 33.7609 40.7105 34.6977C40.7105 35.6345 41.1068 36.1029 41.7914 36.1029Z" fill="white"/>
<path id="Vector_7" d="M48.9253 31.0587H49.6099V37.4H48.9253V31.0587Z" fill="#8993A4"/>
<path id="Vector_8" d="M58.7254 36.4272C58.4011 36.6434 57.8967 36.7515 57.3562 36.7515C55.6267 36.7515 54.6899 35.7066 54.6899 34.0852C54.6899 32.4999 55.6628 31.3829 57.3562 31.3829C57.8606 31.3829 58.3651 31.491 58.7614 31.7432V32.4278C58.4011 32.1756 57.9687 32.0675 57.3562 32.0675C56.1312 32.0675 55.4105 32.8602 55.4105 34.0852C55.4105 35.3102 56.1672 36.0669 57.3922 36.0669C57.9327 36.0669 58.3651 35.9228 58.7614 35.7426V36.4272H58.7254Z" fill="white"/>
<path id="Vector_9" d="M59.23 34.6617C59.23 33.4727 59.9146 32.608 61.1036 32.608C62.2926 32.608 62.9771 33.4727 62.9771 34.6617C62.9771 35.8507 62.2926 36.7154 61.1036 36.7154C59.9146 36.7514 59.23 35.8507 59.23 34.6617ZM59.8785 34.6617C59.8785 35.4183 60.2389 36.1029 61.1036 36.1029C61.9323 36.1029 62.2926 35.4183 62.2926 34.6617C62.2926 33.905 61.9323 33.2565 61.1036 33.2565C60.2749 33.2565 59.8785 33.905 59.8785 34.6617Z" fill="white"/>
<path id="Vector_10" d="M67.1566 36.6794H66.4721V34.3014C66.4721 33.5808 66.1838 33.2565 65.5352 33.2565C64.8867 33.2565 64.4543 33.6889 64.4543 34.4815V36.6794H63.7698V32.7161H64.4543V33.3646C64.7065 32.8962 65.1749 32.644 65.7154 32.644C66.6161 32.644 67.1566 33.2565 67.1566 34.3735V36.6794Z" fill="white"/>
<path id="Vector_11" d="M69.0302 32.68H70.0391V33.3286H69.0302V36.6434H68.3817V33.3286H67.7332V32.68H68.3817V32.2477C68.3817 31.5271 68.778 31.0226 69.6427 31.0226C69.8589 31.0226 69.967 31.0587 70.1111 31.0947V31.7072C70.0031 31.6712 69.8589 31.6712 69.6788 31.6712C69.2464 31.6712 69.0663 31.9234 69.0663 32.2837V32.68H69.0302Z" fill="white"/>
<path id="Vector_12" d="M71.8405 36.6794C71.192 36.6794 70.7957 36.3551 70.7957 35.6345V31.0587H71.4802V35.5985C71.4802 35.9588 71.7324 36.0669 72.0207 36.0669C72.0927 36.0669 72.1287 36.0669 72.2008 36.0669V36.6794C72.1648 36.6794 72.0207 36.6794 71.8405 36.6794Z" fill="white"/>
<path id="Vector_13" d="M72.7773 32.68H73.4619V35.058C73.4619 35.7786 73.7502 36.1029 74.3987 36.1029C75.0473 36.1029 75.4796 35.6705 75.4796 34.8779V32.68H76.1642V36.6434H75.4796V35.9948C75.2274 36.4632 74.759 36.7154 74.2186 36.7154C73.3178 36.7154 72.7773 36.1029 72.7773 34.986V32.68Z" fill="white"/>
<path id="Vector_14" d="M79.0828 36.7515C77.6056 36.7515 76.957 35.8867 76.957 34.6977C76.957 33.5087 77.6056 32.644 78.8306 32.644C80.0556 32.644 80.5601 33.5087 80.5601 34.6977V35.022H77.6776C77.7857 35.7066 78.2181 36.1389 79.1549 36.1389C79.6233 36.1389 80.0196 36.0669 80.3439 35.9228V36.5353C79.9836 36.6794 79.4792 36.7515 79.0828 36.7515ZM77.6416 34.4095H79.8395C79.8034 33.6889 79.4792 33.2565 78.7946 33.2565C78.074 33.2205 77.7137 33.6889 77.6416 34.4095Z" fill="white"/>
<path id="Vector_15" d="M84.7035 36.6794H84.0189V34.3014C84.0189 33.5808 83.7307 33.2565 83.0821 33.2565C82.4336 33.2565 82.0012 33.6889 82.0012 34.4815V36.6794H81.3167V32.7161H82.0012V33.3646C82.2534 32.8962 82.7218 32.644 83.2623 32.644C84.1631 32.644 84.7035 33.2565 84.7035 34.3735V36.6794Z" fill="white"/>
<path id="Vector_16" d="M88.4506 36.5713C88.1984 36.7154 87.8381 36.7515 87.4778 36.7515C86.0726 36.7515 85.4241 35.8867 85.4241 34.6977C85.4241 33.5087 86.0726 32.644 87.4778 32.644C87.8381 32.644 88.1263 32.68 88.4146 32.8241V33.4727C88.1623 33.3646 87.8741 33.2925 87.5138 33.2925C86.4689 33.2925 86.0726 33.9411 86.0726 34.6977C86.0726 35.4544 86.505 36.1029 87.5499 36.1029C87.9462 36.1029 88.1984 36.0309 88.4506 35.9588V36.5713Z" fill="white"/>
<path id="Vector_17" d="M91.1167 36.7515C89.6395 36.7515 88.991 35.8867 88.991 34.6977C88.991 33.5087 89.6395 32.644 90.8645 32.644C92.0896 32.644 92.594 33.5087 92.594 34.6977V35.022H89.7116C89.8197 35.7066 90.252 36.1389 91.1888 36.1389C91.6572 36.1389 92.0535 36.0669 92.3778 35.9228V36.5353C92.0175 36.6794 91.5131 36.7515 91.1167 36.7515ZM89.6755 34.4095H91.8734C91.8374 33.6889 91.5131 33.2565 90.8285 33.2565C90.1079 33.2205 89.7476 33.6889 89.6755 34.4095Z" fill="white"/>
<path id="Vector_18" d="M97.6384 31.0587H98.323V37.4H97.6384V31.0587Z" fill="#8993A4"/>
<path id="Vector_19" d="M107.042 31.455V32.1396H105.457V36.6794H104.736V32.1396H103.151V31.455H107.042Z" fill="white"/>
<path id="Vector_20" d="M108.051 36.6794H107.403V32.7161H108.051V33.4006C108.267 32.9322 108.664 32.608 109.456 32.644V33.2925C108.592 33.2205 108.051 33.4727 108.051 34.3014V36.6794Z" fill="white"/>
<path id="Vector_21" d="M111.87 36.7515C110.393 36.7515 109.745 35.8867 109.745 34.6977C109.745 33.5087 110.393 32.644 111.618 32.644C112.843 32.644 113.348 33.5087 113.348 34.6977V35.022H110.465C110.573 35.7066 111.006 36.1389 111.942 36.1389C112.411 36.1389 112.807 36.0669 113.131 35.9228V36.5353C112.771 36.6794 112.267 36.7515 111.87 36.7515ZM110.393 34.4095H112.591C112.555 33.6889 112.231 33.2565 111.546 33.2565C110.826 33.2205 110.465 33.6889 110.393 34.4095Z" fill="white"/>
<path id="Vector_22" d="M115.185 36.6794C114.536 36.6794 114.14 36.3551 114.14 35.6345V31.0587H114.825V35.5985C114.825 35.9588 115.077 36.0669 115.365 36.0669C115.437 36.0669 115.473 36.0669 115.545 36.0669V36.6794C115.473 36.6794 115.365 36.6794 115.185 36.6794Z" fill="white"/>
<path id="Vector_23" d="M117.239 36.6794C116.59 36.6794 116.194 36.3551 116.194 35.6345V31.0587H116.879V35.5985C116.879 35.9588 117.131 36.0669 117.419 36.0669C117.491 36.0669 117.527 36.0669 117.599 36.0669V36.6794C117.527 36.6794 117.419 36.6794 117.239 36.6794Z" fill="white"/>
<path id="Vector_24" d="M117.959 34.6617C117.959 33.4727 118.644 32.608 119.833 32.608C121.022 32.608 121.707 33.4727 121.707 34.6617C121.707 35.8507 121.022 36.7154 119.833 36.7154C118.68 36.7514 117.959 35.8507 117.959 34.6617ZM118.644 34.6617C118.644 35.4183 119.004 36.1029 119.869 36.1029C120.698 36.1029 121.058 35.4183 121.058 34.6617C121.058 33.905 120.698 33.2565 119.869 33.2565C119.004 33.2565 118.644 33.905 118.644 34.6617Z" fill="white"/>
<path id="Vector_25" d="M126.751 31.0587H127.435V37.4H126.751V31.0587Z" fill="#8993A4"/>
<path id="Vector_26" d="M132.984 31.455H135.182C136.227 31.455 136.767 31.9955 136.767 32.8242C136.767 33.4367 136.479 33.833 135.903 33.9771C136.659 34.1213 137.056 34.5176 137.056 35.2742C137.056 36.1029 136.479 36.6794 135.326 36.6794H133.02V31.455H132.984ZM133.705 32.1396V33.6889H135.074C135.758 33.6889 136.011 33.3646 136.011 32.8962C136.011 32.3918 135.722 32.1396 135.074 32.1396H133.705ZM133.705 34.3374V35.9588H135.326C136.011 35.9588 136.335 35.7066 136.335 35.2022C136.335 34.6617 136.047 34.3374 135.326 34.3374H133.705Z" fill="white"/>
<path id="Vector_27" d="M138.173 31.1667C138.461 31.1667 138.641 31.3469 138.641 31.6351C138.641 31.9234 138.461 32.1035 138.173 32.1035C137.884 32.1035 137.704 31.9234 137.704 31.6351C137.704 31.3469 137.92 31.1667 138.173 31.1667ZM137.848 32.68H138.533V36.6434H137.848V32.68Z" fill="white"/>
<path id="Vector_28" d="M141.127 36.0309C141.271 36.0309 141.451 35.9948 141.559 35.9588V36.6073C141.451 36.6434 141.307 36.6794 141.091 36.6794C140.226 36.6794 139.83 36.175 139.83 35.4544V33.3286H139.181V32.68H139.83V31.8513H140.478V32.68H141.523V33.3286H140.478V35.4183C140.478 35.7786 140.694 36.0309 141.127 36.0309Z" fill="white"/>
<path id="Vector_29" d="M143.109 35.9588V36.6434H142.424V31.0587H143.109V33.4367C143.361 32.8962 143.829 32.644 144.442 32.644C145.487 32.644 146.027 33.5448 146.027 34.6977C146.027 35.8147 145.487 36.7515 144.37 36.7515C143.793 36.7515 143.325 36.4632 143.109 35.9588ZM144.262 33.2565C143.649 33.2565 143.109 33.6529 143.109 34.5176V34.8419C143.109 35.7066 143.613 36.1029 144.19 36.1029C144.946 36.1029 145.343 35.5985 145.343 34.6617C145.343 33.7249 144.946 33.2565 144.262 33.2565Z" fill="white"/>
<path id="Vector_30" d="M146.748 32.68H147.432V35.058C147.432 35.7786 147.72 36.1029 148.369 36.1029C149.017 36.1029 149.45 35.6705 149.45 34.8779V32.68H150.134V36.6434H149.45V35.9948C149.198 36.4632 148.729 36.7154 148.189 36.7154C147.288 36.7154 146.748 36.1029 146.748 34.986V32.68Z" fill="white"/>
<path id="Vector_31" d="M153.954 36.5713C153.702 36.7154 153.341 36.7515 152.981 36.7515C151.576 36.7515 150.927 35.8867 150.927 34.6977C150.927 33.5087 151.576 32.644 152.981 32.644C153.341 32.644 153.63 32.68 153.918 32.8241V33.4727C153.666 33.3646 153.377 33.2925 153.017 33.2925C151.972 33.2925 151.576 33.9411 151.576 34.6977C151.576 35.4544 152.008 36.1029 153.053 36.1029C153.449 36.1029 153.702 36.0309 153.954 35.9588V36.5713Z" fill="white"/>
<path id="Vector_32" d="M154.71 36.6794V31.0587H155.395V34.5536L157.088 32.7161H157.989L156.116 34.6617L158.061 36.6794H157.125L155.395 34.8419V36.6794H154.71Z" fill="white"/>
<path id="Vector_33" d="M160.331 36.7515C158.854 36.7515 158.206 35.8867 158.206 34.6977C158.206 33.5087 158.854 32.644 160.079 32.644C161.304 32.644 161.809 33.5087 161.809 34.6977V35.022H158.926C159.034 35.7066 159.467 36.1389 160.403 36.1389C160.872 36.1389 161.268 36.0669 161.592 35.9228V36.5353C161.232 36.6794 160.728 36.7515 160.331 36.7515ZM158.89 34.4095H161.088C161.052 33.6889 160.728 33.2565 160.043 33.2565C159.323 33.2205 158.962 33.6889 158.89 34.4095Z" fill="white"/>
<path id="Vector_34" d="M164.15 36.0309C164.295 36.0309 164.475 35.9948 164.583 35.9588V36.6073C164.475 36.6434 164.331 36.6794 164.114 36.6794C163.25 36.6794 162.853 36.175 162.853 35.4544V33.3286H162.205V32.68H162.853V31.8513H163.502V32.68H164.547V33.3286H163.502V35.4183C163.538 35.7786 163.718 36.0309 164.15 36.0309Z" fill="white"/>
</g>
<g id="Group_6">
<g id="Group_7">
<g id="Group_8">
<g id="Group_9">
<path id="Vector_35" d="M121.815 18.0517C121.815 14.6288 119.977 13.0074 114.861 11.8905C112.014 11.278 111.33 10.6294 111.33 9.72868C111.33 8.61174 112.339 8.10732 114.212 8.10732C116.482 8.10732 118.716 8.7919 120.842 9.76472V5.26092C119.365 4.50428 117.059 3.9278 114.356 3.9278C109.276 3.9278 106.646 6.12565 106.646 9.76472C106.646 12.6471 107.979 14.9531 113.239 15.9619C116.374 16.6105 117.023 17.1149 117.023 18.1598C117.023 19.1686 116.374 19.8172 114.14 19.8172C111.582 19.8172 108.52 18.9525 106.538 17.7635V22.4834C108.123 23.2761 110.213 24.1408 114.104 24.1408C119.617 24.1408 121.815 21.6908 121.815 18.0517Z" fill="white"/>
<path id="Vector_36" d="M177.229 4.21603V23.8526H181.409V8.89998L183.175 12.8633L189.083 23.8526H194.344V4.21603H190.164V16.8987L188.579 13.2236L183.823 4.21603H177.229Z" fill="white"/>
<path id="Vector_37" d="M150.675 4.21603H146.099V23.8166H150.675V4.21603Z" fill="white"/>
<path id="Vector_38" d="M140.803 18.0517C140.803 14.6288 138.965 13.0074 133.849 11.8905C131.003 11.278 130.318 10.6294 130.318 9.72868C130.318 8.61174 131.327 8.10732 133.2 8.10732C135.47 8.10732 137.704 8.7919 139.83 9.76472V5.26092C138.353 4.50428 136.047 3.9278 133.344 3.9278C128.264 3.9278 125.634 6.12565 125.634 9.76472C125.634 12.6471 126.967 14.9531 132.228 15.9619C135.362 16.6105 136.011 17.1149 136.011 18.1598C136.011 19.1686 135.362 19.8172 133.128 19.8172C130.57 19.8172 127.508 18.9525 125.526 17.7635V22.4834C127.111 23.2761 129.201 24.1408 133.092 24.1408C138.641 24.1408 140.803 21.6908 140.803 18.0517Z" fill="white"/>
<path id="Vector_39" d="M71.1921 4.21603V23.8526H80.56L82.0373 19.601H75.768V4.21603H71.1921Z" fill="white"/>
<path id="Vector_40" d="M52.6365 4.21603V8.46762H57.7167V23.8526H62.2926V8.46762H67.7332V4.21603H52.6365Z" fill="white"/>
</g>
</g>
<path id="Vector_41" d="M45.9708 4.21603H39.9537L33.1079 23.8166H38.3323L39.3052 20.5018C40.4581 20.826 41.6832 21.0422 42.9802 21.0422C44.2413 21.0422 45.4664 20.8621 46.6554 20.5018L47.6282 23.8166H52.8526L45.9708 4.21603ZM42.9442 17.0068C42.0795 17.0068 41.2148 16.8627 40.4221 16.6465L42.9442 8.07128L45.4664 16.6465C44.6737 16.8627 43.845 17.0068 42.9442 17.0068Z" fill="white"/>
<path id="Vector_42" d="M96.7735 4.21603H90.7564L83.9106 23.8166H89.135L90.1079 20.5018C91.2609 20.826 92.4859 21.0422 93.783 21.0422C95.044 21.0422 96.2691 20.8621 97.4581 20.5018L98.4309 23.8166H103.655L96.7735 4.21603ZM93.7469 17.0068C92.8822 17.0068 92.0175 16.8627 91.2248 16.6465L93.7469 8.07128L96.2691 16.6465C95.4764 16.8627 94.6117 17.0068 93.7469 17.0068Z" fill="white"/>
<path id="Vector_43" d="M167.105 4.21603H161.088L154.242 23.8166H159.467L160.439 20.5018C161.592 20.826 162.817 21.0422 164.115 21.0422C165.376 21.0422 166.601 20.8621 167.79 20.5018L168.762 23.8166H173.987L167.105 4.21603ZM164.115 17.0068C163.25 17.0068 162.385 16.8627 161.592 16.6465L164.115 8.07128L166.637 16.6465C165.808 16.8627 164.979 17.0068 164.115 17.0068Z" fill="white"/>
</g>
</g>
</g>
</g>
</g>
<defs>
<linearGradient id="paint0_linear" x1="10.2586" y1="12.8161" x2="4.08618" y2="23.507" gradientUnits="userSpaceOnUse">
<stop stop-color="white" stop-opacity="0.4"/>
<stop offset="0.9228" stop-color="white"/>
</linearGradient>
</defs>
</svg>
