<svg width="195" height="38" viewBox="0 0 195 38" fill="none" xmlns="http://www.w3.org/2000/svg">
<g id="mini-strapline-logo-onecolor-white-atlassian">
<g id="Group">
<g id="Group_2">
<path id="Vector" d="M34.582 31.4548H35.3026V35.094C35.3026 36.0668 34.8703 36.7153 33.8974 36.7153C33.5371 36.7153 33.2489 36.6433 33.0327 36.5712V35.8866C33.2489 35.9587 33.5011 36.0308 33.7533 36.0308C34.3659 36.0308 34.546 35.6705 34.546 35.166V31.4548H34.582Z" fill="white"/>
<path id="Vector_2" d="M36.5638 31.1666C36.8521 31.1666 37.0323 31.3468 37.0323 31.635C37.0323 31.9233 36.8521 32.1034 36.5638 32.1034C36.2756 32.1034 36.0955 31.9233 36.0955 31.635C36.0955 31.3468 36.3116 31.1666 36.5638 31.1666ZM36.2395 32.7159H36.9241V36.6793H36.2395V32.7159Z" fill="white"/>
<path id="Vector_3" d="M38.6176 36.6793H37.969V32.7159H38.6176V33.4005C38.8338 32.9321 39.2301 32.6078 40.0227 32.6438V33.2924C39.158 33.2203 38.6176 33.4725 38.6176 34.3013V36.6793Z" fill="white"/>
<path id="Vector_4" d="M43.1934 35.9587C42.9412 36.4991 42.4728 36.7514 41.8603 36.7514C40.8154 36.7514 40.2749 35.8506 40.2749 34.6976C40.2749 33.5806 40.8154 32.6439 41.9323 32.6439C42.5088 32.6439 42.9412 32.8961 43.1934 33.4365V32.7519H43.878V36.7153H43.1934V35.9587ZM42.0404 36.1028C42.6529 36.1028 43.1934 35.7065 43.1934 34.8417V34.5174C43.1934 33.6527 42.689 33.2564 42.1125 33.2564C41.3558 33.2564 40.9595 33.7608 40.9595 34.6976C40.9595 35.6344 41.3558 36.1028 42.0404 36.1028Z" fill="white"/>
<path id="Vector_5" opacity="0.5" d="M49.1746 31.0585H49.8592V37.3999H49.1746V31.0585Z" fill="white"/>
<path id="Vector_6" d="M58.9749 36.4271C58.6507 36.6433 58.1462 36.7514 57.6057 36.7514C55.8763 36.7514 54.9395 35.7065 54.9395 34.0851C54.9395 32.4998 55.9123 31.3828 57.6057 31.3828C58.1102 31.3828 58.6146 31.4909 59.011 31.7431V32.4277C58.6506 32.1755 58.2183 32.0674 57.6057 32.0674C56.3807 32.0674 55.6601 32.8601 55.6601 34.0851C55.6601 35.3102 56.4167 36.0668 57.6418 36.0668C58.1822 36.0668 58.6146 35.9227 59.011 35.7425V36.4271H58.9749Z" fill="white"/>
<path id="Vector_7" d="M59.4795 34.6616C59.4795 33.4726 60.1641 32.6078 61.3531 32.6078C62.5421 32.6078 63.2267 33.4726 63.2267 34.6616C63.2267 35.8506 62.5421 36.7154 61.3531 36.7154C60.1641 36.7514 59.4795 35.8506 59.4795 34.6616ZM60.1281 34.6616C60.1281 35.4183 60.4884 36.1028 61.3531 36.1028C62.1818 36.1028 62.5421 35.4183 62.5421 34.6616C62.5421 33.905 62.1818 33.2564 61.3531 33.2564C60.5244 33.2564 60.1281 33.905 60.1281 34.6616Z" fill="white"/>
<path id="Vector_8" d="M67.4062 36.6793H66.7216V34.3013C66.7216 33.5807 66.4333 33.2564 65.7848 33.2564C65.1362 33.2564 64.7038 33.6887 64.7038 34.4814V36.6793H64.0193V32.7159H64.7038V33.3645C64.9561 32.8961 65.4245 32.6439 65.9649 32.6439C66.8657 32.6439 67.4062 33.2564 67.4062 34.3733V36.6793Z" fill="white"/>
<path id="Vector_9" d="M69.2798 32.7159H70.2886V33.3645H69.2798V36.6793H68.6312V33.3645H67.9827V32.7159H68.6312V32.2835C68.6312 31.5629 69.0275 31.0585 69.8923 31.0585C70.1085 31.0585 70.2166 31.0945 70.3607 31.1305V31.7431C70.2526 31.707 70.1085 31.707 69.9283 31.707C69.4959 31.707 69.3158 31.9592 69.3158 32.3196V32.7159H69.2798Z" fill="white"/>
<path id="Vector_10" d="M72.0903 36.6793C71.4417 36.6793 71.0454 36.355 71.0454 35.6344V31.0585H71.73V35.5983C71.73 35.9587 71.9822 36.0668 72.2704 36.0668C72.3425 36.0668 72.3785 36.0668 72.4506 36.0668V36.6793C72.4145 36.6793 72.2704 36.6793 72.0903 36.6793Z" fill="white"/>
<path id="Vector_11" d="M73.0271 32.7159H73.7117V35.0939C73.7117 35.8145 73.9999 36.1388 74.6485 36.1388C75.297 36.1388 75.7294 35.7065 75.7294 34.9138V32.7159H76.414V36.6793H75.7294V36.0307C75.4772 36.4991 75.0088 36.7513 74.4683 36.7513C73.5676 36.7513 73.0271 36.1388 73.0271 35.0219V32.7159Z" fill="white"/>
<path id="Vector_12" d="M79.3324 36.7514C77.8551 36.7514 77.2065 35.8866 77.2065 34.6976C77.2065 33.5086 77.8551 32.6439 79.0801 32.6439C80.3052 32.6439 80.8096 33.5086 80.8096 34.6976V35.0219H77.9272C78.0353 35.7065 78.4676 36.1388 79.4044 36.1388C79.8728 36.1388 80.2692 36.0668 80.5935 35.9227V36.5352C80.2331 36.6793 79.7287 36.7514 79.3324 36.7514ZM77.8911 34.4094H80.089C80.053 33.6887 79.7287 33.2564 79.0441 33.2564C78.3235 33.2564 77.9632 33.7248 77.8911 34.4094Z" fill="white"/>
<path id="Vector_13" d="M84.9533 36.6793H84.2687V34.3013C84.2687 33.5807 83.9805 33.2564 83.3319 33.2564C82.6834 33.2564 82.251 33.6887 82.251 34.4814V36.6793H81.5664V32.7159H82.251V33.3645C82.5032 32.8961 82.9716 32.6439 83.5121 32.6439C84.4129 32.6439 84.9533 33.2564 84.9533 34.3733V36.6793Z" fill="white"/>
<path id="Vector_14" d="M88.7004 36.5712C88.4482 36.7153 88.0879 36.7514 87.7276 36.7514C86.3224 36.7514 85.6738 35.8866 85.6738 34.6976C85.6738 33.5086 86.3224 32.6439 87.7276 32.6439C88.0879 32.6439 88.3761 32.6799 88.6644 32.824V33.4726C88.4121 33.3645 88.1239 33.2924 87.7636 33.2924C86.7187 33.2924 86.3224 33.941 86.3224 34.6976C86.3224 35.4542 86.7548 36.1028 87.7997 36.1028C88.196 36.1028 88.4482 36.0307 88.7004 35.9587V36.5712Z" fill="white"/>
<path id="Vector_15" d="M91.3668 36.7514C89.8895 36.7514 89.241 35.8866 89.241 34.6976C89.241 33.5086 89.8895 32.6439 91.1146 32.6439C92.3396 32.6439 92.8441 33.5086 92.8441 34.6976V35.0219H89.9616C90.0697 35.7065 90.502 36.1388 91.4388 36.1388C91.9072 36.1388 92.3036 36.0668 92.6278 35.9227V36.5352C92.2675 36.6793 91.7631 36.7514 91.3668 36.7514ZM89.9255 34.4094H92.1234C92.0874 33.6887 91.7631 33.2564 91.0785 33.2564C90.3579 33.2564 89.9976 33.7248 89.9255 34.4094Z" fill="white"/>
<path id="Vector_16" opacity="0.5" d="M97.8882 31.0585H98.5727V37.3999H97.8882V31.0585Z" fill="white"/>
<path id="Vector_17" d="M107.292 31.4548V32.1394H105.707V36.6793H104.986V32.1394H103.401V31.4548H107.292Z" fill="white"/>
<path id="Vector_18" d="M108.301 36.6793H107.653V32.7159H108.301V33.4005C108.517 32.9321 108.914 32.6078 109.706 32.6438V33.2924C108.842 33.2203 108.301 33.4725 108.301 34.3013V36.6793Z" fill="white"/>
<path id="Vector_19" d="M112.12 36.7514C110.643 36.7514 109.995 35.8866 109.995 34.6976C109.995 33.5086 110.643 32.6439 111.868 32.6439C113.093 32.6439 113.598 33.5086 113.598 34.6976V35.0219H110.715C110.823 35.7065 111.256 36.1388 112.193 36.1388C112.661 36.1388 113.057 36.0668 113.382 35.9227V36.5352C113.021 36.6793 112.517 36.7514 112.12 36.7514ZM110.643 34.4094H112.841C112.805 33.6887 112.481 33.2564 111.796 33.2564C111.076 33.2564 110.715 33.7248 110.643 34.4094Z" fill="white"/>
<path id="Vector_20" d="M115.435 36.6793C114.787 36.6793 114.39 36.355 114.39 35.6344V31.0585H115.075V35.5983C115.075 35.9587 115.327 36.0668 115.615 36.0668C115.687 36.0668 115.724 36.0668 115.796 36.0668V36.6793C115.724 36.6793 115.615 36.6793 115.435 36.6793Z" fill="white"/>
<path id="Vector_21" d="M117.489 36.6793C116.84 36.6793 116.444 36.355 116.444 35.6344V31.0585H117.129V35.5983C117.129 35.9587 117.381 36.0668 117.669 36.0668C117.741 36.0668 117.777 36.0668 117.849 36.0668V36.6793C117.777 36.6793 117.669 36.6793 117.489 36.6793Z" fill="white"/>
<path id="Vector_22" d="M118.21 34.6616C118.21 33.4726 118.894 32.6078 120.083 32.6078C121.272 32.6078 121.957 33.4726 121.957 34.6616C121.957 35.8506 121.272 36.7154 120.083 36.7154C118.93 36.7514 118.21 35.8506 118.21 34.6616ZM118.894 34.6616C118.894 35.4183 119.255 36.1028 120.119 36.1028C120.948 36.1028 121.308 35.4183 121.308 34.6616C121.308 33.905 120.948 33.2564 120.119 33.2564C119.255 33.2564 118.894 33.905 118.894 34.6616Z" fill="white"/>
<path id="Vector_23" opacity="0.5" d="M127.001 31.0585H127.686V37.3999H127.001V31.0585Z" fill="white"/>
<path id="Vector_24" d="M133.234 31.4548H135.432C136.477 31.4548 137.018 31.9953 137.018 32.824C137.018 33.4365 136.729 33.8329 136.153 33.977C136.91 34.1211 137.306 34.5175 137.306 35.2741C137.306 36.1028 136.729 36.6793 135.576 36.6793H133.27V31.4548H133.234ZM133.955 32.1394V33.6888H135.324C136.009 33.6888 136.261 33.3645 136.261 32.8961C136.261 32.3916 135.973 32.1394 135.324 32.1394H133.955ZM133.955 34.3373V35.9587H135.576C136.261 35.9587 136.585 35.7065 136.585 35.202C136.585 34.6616 136.297 34.3373 135.576 34.3373H133.955Z" fill="white"/>
<path id="Vector_25" d="M138.423 31.1666C138.711 31.1666 138.891 31.3468 138.891 31.635C138.891 31.9233 138.711 32.1034 138.423 32.1034C138.135 32.1034 137.955 31.9233 137.955 31.635C137.955 31.3468 138.171 31.1666 138.423 31.1666ZM138.099 32.7159H138.783V36.6793H138.099V32.7159Z" fill="white"/>
<path id="Vector_26" d="M141.378 36.0307C141.522 36.0307 141.702 35.9947 141.81 35.9586V36.6072C141.702 36.6432 141.558 36.6793 141.342 36.6793C140.477 36.6793 140.08 36.1748 140.08 35.4542V33.3284H139.432V32.6798H140.08V31.8511H140.729V32.6798H141.774V33.3284H140.729V35.4182C140.729 35.7785 140.945 36.0307 141.378 36.0307Z" fill="white"/>
<path id="Vector_27" d="M143.359 35.9587V36.6433H142.675V31.0585H143.359V33.4365C143.611 32.896 144.08 32.6438 144.692 32.6438C145.737 32.6438 146.278 33.5446 146.278 34.6976C146.278 35.8145 145.737 36.7513 144.62 36.7513C144.044 36.7513 143.575 36.4991 143.359 35.9587ZM144.512 33.2563C143.9 33.2563 143.359 33.6527 143.359 34.5174V34.8417C143.359 35.7064 143.864 36.1028 144.44 36.1028C145.197 36.1028 145.593 35.5984 145.593 34.6616C145.593 33.7248 145.197 33.2563 144.512 33.2563Z" fill="white"/>
<path id="Vector_28" d="M146.998 32.7159H147.683V35.0939C147.683 35.8145 147.971 36.1388 148.62 36.1388C149.268 36.1388 149.701 35.7065 149.701 34.9138V32.7159H150.385V36.6793H149.701V36.0307C149.448 36.4991 148.98 36.7513 148.44 36.7513C147.539 36.7513 146.998 36.1388 146.998 35.0219V32.7159Z" fill="white"/>
<path id="Vector_29" d="M154.204 36.5712C153.952 36.7153 153.592 36.7514 153.232 36.7514C151.826 36.7514 151.178 35.8866 151.178 34.6976C151.178 33.5086 151.826 32.6439 153.232 32.6439C153.592 32.6439 153.88 32.6799 154.168 32.824V33.4726C153.916 33.3645 153.628 33.2924 153.268 33.2924C152.223 33.2924 151.826 33.941 151.826 34.6976C151.826 35.4542 152.259 36.1028 153.304 36.1028C153.7 36.1028 153.952 36.0307 154.204 35.9587V36.5712Z" fill="white"/>
<path id="Vector_30" d="M154.961 36.6793V31.0585H155.646V34.5535L157.339 32.7159H158.24L156.366 34.6616L158.312 36.6793H157.375L155.646 34.8417V36.6793H154.961Z" fill="white"/>
<path id="Vector_31" d="M160.582 36.7514C159.105 36.7514 158.456 35.8866 158.456 34.6976C158.456 33.5086 159.105 32.6439 160.33 32.6439C161.555 32.6439 162.059 33.5086 162.059 34.6976V35.0219H159.177C159.285 35.7065 159.717 36.1388 160.654 36.1388C161.122 36.1388 161.519 36.0668 161.843 35.9227V36.5352C161.483 36.6793 160.978 36.7514 160.582 36.7514ZM159.141 34.4094H161.339C161.302 33.6887 160.978 33.2564 160.294 33.2564C159.573 33.2564 159.213 33.7248 159.141 34.4094Z" fill="white"/>
<path id="Vector_32" d="M164.401 36.0307C164.545 36.0307 164.726 35.9947 164.834 35.9586V36.6072C164.726 36.6432 164.581 36.6793 164.365 36.6793C163.5 36.6793 163.104 36.1748 163.104 35.4542V33.3284H162.456V32.6798H163.104V31.8511H163.753V32.6798H164.798V33.3284H163.753V35.4182C163.789 35.7785 163.969 36.0307 164.401 36.0307Z" fill="white"/>
</g>
<g id="Layer 2 6">
<g id="Layer 1 2 6">
<g id="Group_3">
<g id="Group_4">
<g id="Group_5">
<g id="Group_6">
<g id="Group_7">
<path id="Vector_33" d="M122.065 18.0515C122.065 14.6285 120.227 13.0071 115.111 11.8902C112.265 11.2776 111.58 10.6291 111.58 9.72832C111.58 8.61137 112.589 8.10694 114.462 8.10694C116.732 8.10694 118.966 8.79154 121.092 9.76437V5.26051C119.615 4.50387 117.309 3.92737 114.607 3.92737C109.526 3.92737 106.896 6.12525 106.896 9.76437C106.896 12.6468 108.229 14.9528 113.49 15.9617C116.624 16.6102 117.273 17.1147 117.273 18.1595C117.273 19.1684 116.624 19.817 114.39 19.817C111.832 19.817 108.77 18.9522 106.788 17.7632V22.4832C108.373 23.2759 110.463 24.1407 114.354 24.1407C119.867 24.1407 122.065 21.6906 122.065 18.0515Z" fill="white"/>
<path id="Vector_34" d="M177.48 4.21558V23.8524H181.66V8.89958L183.425 12.863L189.334 23.8524H194.595V4.21558H190.415V16.8984L188.83 13.2233L184.074 4.21558H177.48Z" fill="white"/>
<path id="Vector_35" d="M150.926 4.21558H146.35V23.8164H150.926V4.21558Z" fill="white"/>
<path id="Vector_36" d="M141.053 18.0515C141.053 14.6285 139.216 13.0071 134.099 11.8902C131.253 11.2776 130.568 10.6291 130.568 9.72832C130.568 8.61137 131.577 8.10694 133.451 8.10694C135.721 8.10694 137.955 8.79154 140.08 9.76437V5.26051C138.603 4.50387 136.297 3.92737 133.595 3.92737C128.514 3.92737 125.884 6.12525 125.884 9.76437C125.884 12.6468 127.217 14.9528 132.478 15.9617C135.613 16.6102 136.261 17.1147 136.261 18.1595C136.261 19.1684 135.613 19.817 133.379 19.817C130.82 19.817 127.758 18.9522 125.776 17.7632V22.4832C127.361 23.2759 129.451 24.1407 133.343 24.1407C138.891 24.1407 141.053 21.6906 141.053 18.0515Z" fill="white"/>
<path id="Vector_37" d="M71.4417 4.21558V23.8524H80.8097L82.2869 19.6007H76.0175V4.21558H71.4417Z" fill="white"/>
<path id="Vector_38" d="M52.8857 4.21558V8.46721H57.9661V23.8524H62.542V8.46721H67.9827V4.21558H52.8857Z" fill="white"/>
</g>
</g>
<path id="Vector_39" d="M46.22 4.21558H40.2028L33.3569 23.8164H38.5814L39.5543 20.5015C40.7072 20.8258 41.9323 21.042 43.2294 21.042C44.4905 21.042 45.7155 20.8618 46.9046 20.5015L47.8774 23.8164H53.1018L46.22 4.21558ZM43.1934 17.0065C42.3286 17.0065 41.4639 16.8624 40.6712 16.6462L43.1934 8.07088L45.7155 16.6462C44.9228 16.8624 44.0941 17.0065 43.1934 17.0065Z" fill="white"/>
<path id="Vector_40" d="M97.0234 4.21558H91.0063L84.1604 23.8164H89.3849L90.3577 20.5015C91.5107 20.8258 92.7357 21.042 94.0329 21.042C95.2939 21.042 96.519 20.8618 97.708 20.5015L98.6808 23.8164H103.905L97.0234 4.21558ZM93.9968 17.0065C93.1321 17.0065 92.2674 16.8624 91.4747 16.6462L93.9968 8.07088L96.519 16.6462C95.7263 16.8624 94.8616 17.0065 93.9968 17.0065Z" fill="white"/>
<path id="Vector_41" d="M167.356 4.21558H161.339L154.493 23.8164H159.717L160.69 20.5015C161.843 20.8258 163.068 21.042 164.365 21.042C165.626 21.042 166.851 20.8618 168.04 20.5015L169.013 23.8164H174.238L167.356 4.21558ZM164.365 17.0065C163.5 17.0065 162.636 16.8624 161.843 16.6462L164.365 8.07088L166.887 16.6462C166.059 16.8624 165.23 17.0065 164.365 17.0065Z" fill="white"/>
</g>
</g>
<g id="Group_8">
<path id="Vector_42" d="M6.87435 11.1336C6.76625 10.9894 6.55011 10.9174 6.36995 10.9174C6.22583 10.9534 6.0817 11.0615 6.00964 11.2056L0.0645549 23.0958C-0.0795684 23.348 0.0285153 23.6723 0.280731 23.7804C0.352793 23.8164 0.424846 23.8524 0.496907 23.8524H8.784C8.96415 23.8524 9.18036 23.7443 9.25242 23.5642C11.0179 19.9611 9.93697 14.4124 6.87435 11.1336Z" fill="white"/>
<path id="Vector_43" d="M23.8449 23.0958C23.7368 22.8796 12.7113 0.828705 12.4591 0.288242C12.387 0.144119 12.2429 0.0360308 12.0628 0H12.0267C11.8466 0 11.6664 0.108088 11.5583 0.288242C8.56776 5.00828 8.24348 10.7372 10.6575 15.5653L14.657 23.5281C14.7291 23.7083 14.9092 23.8164 15.1254 23.8164H23.4125C23.7007 23.8164 23.9169 23.6002 23.9169 23.312C23.8809 23.2399 23.8809 23.1678 23.8449 23.0958Z" fill="white"/>
</g>
</g>
</g>
</g>
</g>
</g>
</svg>
