<svg width="195" height="38" viewBox="0 0 195 38" fill="none" xmlns="http://www.w3.org/2000/svg">
<g id="strapline-logo-gradient-neutral-atlassian">
<g id="Group">
<g id="Group_2">
<g id="Group_3">
<path id="Vector" d="M7.05795 11.0258C6.69765 10.6294 6.15719 10.6655 5.90497 11.1339L0.0680731 22.8437C-0.148109 23.3121 0.176147 23.8526 0.680572 23.8526H8.82345C9.07566 23.8526 9.32788 23.7085 9.43597 23.4563C11.2375 19.8172 10.1566 14.3045 7.05795 11.0258Z" fill="url(#paint0_linear)"/>
<path id="Vector_2" d="M11.3456 0.360786C8.06688 5.54916 8.28307 11.278 10.4449 15.6016C12.6067 19.9253 14.2641 23.204 14.3722 23.4562C14.4803 23.7085 14.7325 23.8526 14.9847 23.8526H23.1276C23.632 23.8526 23.9923 23.3121 23.7401 22.8437C23.7401 22.8437 12.7869 0.937272 12.4986 0.396816C12.3185 -0.107609 11.6699 -0.143639 11.3456 0.360786Z" fill="#7A869A"/>
</g>
</g>
<g id="Group_4">
<path id="Vector_3" d="M34.5132 31.455H35.2338V35.0941C35.2338 36.0669 34.8014 36.7154 33.8286 36.7154C33.4683 36.7154 33.18 36.6434 32.9639 36.5713V35.8867C33.18 35.9588 33.4323 36.0309 33.6845 36.0309C34.297 36.0309 34.4771 35.6706 34.4771 35.1661V31.455H34.5132Z" fill="#344665"/>
<path id="Vector_4" d="M36.5309 31.1667C36.8191 31.1667 36.9993 31.3469 36.9993 31.6351C36.9993 31.9234 36.8191 32.1035 36.5309 32.1035C36.2426 32.1035 36.0625 31.9234 36.0625 31.6351C36.0625 31.3469 36.2787 31.1667 36.5309 31.1667ZM36.2066 32.68H36.8912V36.6434H36.2066V32.68Z" fill="#344665"/>
<path id="Vector_5" d="M38.5846 36.6794H37.936V32.7161H38.5846V33.4006C38.8008 32.9322 39.1971 32.608 39.9898 32.644V33.2925C39.125 33.2205 38.5846 33.4727 38.5846 34.3014V36.6794Z" fill="#344665"/>
<path id="Vector_6" d="M43.1604 35.9588C42.9082 36.4992 42.4398 36.7515 41.8273 36.7515C40.7824 36.7515 40.2419 35.8507 40.2419 34.6977C40.2419 33.5808 40.7824 32.644 41.8993 32.644C42.4758 32.644 42.9082 32.8962 43.1604 33.4367V32.7521H43.845V36.7154H43.1604V35.9588ZM42.0074 36.1029C42.6199 36.1029 43.1604 35.7066 43.1604 34.8418V34.5176C43.1604 33.6528 42.656 33.2565 42.0795 33.2565C41.3228 33.2565 40.9265 33.7609 40.9265 34.6977C40.9265 35.6345 41.3228 36.1029 42.0074 36.1029Z" fill="#344665"/>
<path id="Vector_7" d="M49.1055 31.0587H49.7901V37.4H49.1055V31.0587Z" fill="#8993A4"/>
<path id="Vector_8" d="M58.9419 36.4272C58.6176 36.6434 58.1132 36.7515 57.5728 36.7515C55.8433 36.7515 54.9065 35.7066 54.9065 34.0852C54.9065 32.4999 55.8793 31.3829 57.5728 31.3829C58.0772 31.3829 58.5816 31.491 58.9779 31.7432V32.4278C58.6176 32.1756 58.1853 32.0675 57.5728 32.0675C56.3477 32.0675 55.6271 32.8602 55.6271 34.0852C55.6271 35.3102 56.3837 36.0669 57.6088 36.0669C58.1492 36.0669 58.5816 35.9228 58.9779 35.7426V36.4272H58.9419Z" fill="#344665"/>
<path id="Vector_9" d="M59.4463 34.6617C59.4463 33.4727 60.1309 32.608 61.3199 32.608C62.5089 32.608 63.1934 33.4727 63.1934 34.6617C63.1934 35.8507 62.5089 36.7154 61.3199 36.7154C60.1309 36.7514 59.4463 35.8507 59.4463 34.6617ZM60.0948 34.6617C60.0948 35.4183 60.4551 36.1029 61.3199 36.1029C62.1486 36.1029 62.5089 35.4183 62.5089 34.6617C62.5089 33.905 62.1486 33.2565 61.3199 33.2565C60.4551 33.2565 60.0948 33.905 60.0948 34.6617Z" fill="#344665"/>
<path id="Vector_10" d="M67.3368 36.6794H66.6522V34.3014C66.6522 33.5808 66.364 33.2565 65.7154 33.2565C65.0669 33.2565 64.6345 33.6889 64.6345 34.4815V36.6794H63.95V32.7161H64.6345V33.3646C64.8867 32.8962 65.3551 32.644 65.8956 32.644C66.7963 32.644 67.3368 33.2565 67.3368 34.3735V36.6794Z" fill="#344665"/>
<path id="Vector_11" d="M69.2463 32.68H70.2552V33.3286H69.2463V36.6434H68.5978V33.3286H67.9492V32.68H68.5978V32.2477C68.5978 31.5271 68.9941 31.0226 69.8588 31.0226C70.075 31.0226 70.1831 31.0587 70.3272 31.0947V31.7072C70.2191 31.6712 70.075 31.6712 69.8949 31.6712C69.4625 31.6712 69.2823 31.9234 69.2823 32.2837V32.68H69.2463Z" fill="#344665"/>
<path id="Vector_12" d="M72.0566 36.6794C71.4081 36.6794 71.0117 36.3551 71.0117 35.6345V31.0587H71.6963V35.5985C71.6963 35.9588 71.9485 36.0669 72.2368 36.0669C72.3088 36.0669 72.3448 36.0669 72.4169 36.0669V36.6794C72.3448 36.6794 72.2368 36.6794 72.0566 36.6794Z" fill="#344665"/>
<path id="Vector_13" d="M72.9934 32.68H73.678V35.058C73.678 35.7786 73.9662 36.1029 74.6148 36.1029C75.2633 36.1029 75.6957 35.6705 75.6957 34.8779V32.68H76.3803V36.6434H75.6957V35.9948C75.4435 36.4632 74.9751 36.7154 74.4346 36.7154C73.5339 36.7154 72.9934 36.1029 72.9934 34.986V32.68Z" fill="#344665"/>
<path id="Vector_14" d="M79.2989 36.7515C77.8216 36.7515 77.1731 35.8867 77.1731 34.6977C77.1731 33.5087 77.8216 32.644 79.0467 32.644C80.2717 32.644 80.7761 33.5087 80.7761 34.6977V35.022H77.8937C78.0018 35.7066 78.4341 36.1389 79.3709 36.1389C79.8393 36.1389 80.2357 36.0669 80.5599 35.9228V36.5353C80.1996 36.6794 79.6952 36.7515 79.2989 36.7515ZM77.8216 34.4095H80.0195C79.9834 33.6889 79.6592 33.2565 78.9746 33.2565C78.29 33.2205 77.8937 33.6889 77.8216 34.4095Z" fill="#344665"/>
<path id="Vector_15" d="M84.9196 36.6794H84.235V34.3014C84.235 33.5808 83.9468 33.2565 83.2982 33.2565C82.6497 33.2565 82.2173 33.6889 82.2173 34.4815V36.6794H81.5327V32.7161H82.2173V33.3646C82.4695 32.8962 82.9379 32.644 83.4784 32.644C84.3791 32.644 84.9196 33.2565 84.9196 34.3735V36.6794Z" fill="#344665"/>
<path id="Vector_16" d="M88.6669 36.5713C88.4147 36.7154 88.0544 36.7515 87.6941 36.7515C86.2889 36.7515 85.6404 35.8867 85.6404 34.6977C85.6404 33.5087 86.2889 32.644 87.6941 32.644C88.0544 32.644 88.3426 32.68 88.6309 32.8241V33.4727C88.3787 33.3646 88.0904 33.2925 87.7301 33.2925C86.6853 33.2925 86.2889 33.9411 86.2889 34.6977C86.2889 35.4544 86.7213 36.1029 87.7662 36.1029C88.1625 36.1029 88.4147 36.0309 88.6669 35.9588V36.5713Z" fill="#344665"/>
<path id="Vector_17" d="M91.3331 36.7515C89.8558 36.7515 89.2073 35.8867 89.2073 34.6977C89.2073 33.5087 89.8558 32.644 91.0809 32.644C92.3059 32.644 92.8103 33.5087 92.8103 34.6977V35.022H89.9279C90.036 35.7066 90.4684 36.1389 91.4051 36.1389C91.8735 36.1389 92.2699 36.0669 92.5941 35.9228V36.5353C92.2338 36.6794 91.7294 36.7515 91.3331 36.7515ZM89.8919 34.4095H92.0897C92.0537 33.6889 91.7294 33.2565 91.0448 33.2565C90.3242 33.2205 89.9639 33.6889 89.8919 34.4095Z" fill="#344665"/>
<path id="Vector_18" d="M97.8545 31.0587H98.5391V37.4H97.8545V31.0587Z" fill="#8993A4"/>
<path id="Vector_19" d="M107.258 31.455V32.1396H105.673V36.6794H104.952V32.1396H103.331V31.455H107.258Z" fill="#344665"/>
<path id="Vector_20" d="M108.267 36.6794H107.619V32.7161H108.267V33.4006C108.484 32.9322 108.88 32.608 109.673 32.644V33.2925C108.808 33.2205 108.267 33.4727 108.267 34.3014V36.6794Z" fill="#344665"/>
<path id="Vector_21" d="M112.05 36.7515C110.573 36.7515 109.925 35.8867 109.925 34.6977C109.925 33.5087 110.573 32.644 111.798 32.644C113.023 32.644 113.528 33.5087 113.528 34.6977V35.022H110.645C110.753 35.7066 111.186 36.1389 112.122 36.1389C112.591 36.1389 112.987 36.0669 113.311 35.9228V36.5353C112.987 36.6794 112.483 36.7515 112.05 36.7515ZM110.609 34.4095H112.807C112.771 33.6889 112.447 33.2565 111.762 33.2565C111.042 33.2205 110.681 33.6889 110.609 34.4095Z" fill="#344665"/>
<path id="Vector_22" d="M115.401 36.6794C114.753 36.6794 114.356 36.3551 114.356 35.6345V31.0587H115.041V35.5985C115.041 35.9588 115.293 36.0669 115.581 36.0669C115.654 36.0669 115.69 36.0669 115.762 36.0669V36.6794C115.69 36.6794 115.545 36.6794 115.401 36.6794Z" fill="#344665"/>
<path id="Vector_23" d="M117.455 36.6794C116.806 36.6794 116.41 36.3551 116.41 35.6345V31.0587H117.095V35.5985C117.095 35.9588 117.347 36.0669 117.635 36.0669C117.707 36.0669 117.743 36.0669 117.815 36.0669V36.6794C117.743 36.6794 117.635 36.6794 117.455 36.6794Z" fill="#344665"/>
<path id="Vector_24" d="M118.176 34.6617C118.176 33.4727 118.86 32.608 120.049 32.608C121.238 32.608 121.923 33.4727 121.923 34.6617C121.923 35.8507 121.238 36.7154 120.049 36.7154C118.896 36.7514 118.176 35.8507 118.176 34.6617ZM118.86 34.6617C118.86 35.4183 119.221 36.1029 120.085 36.1029C120.914 36.1029 121.274 35.4183 121.274 34.6617C121.274 33.905 120.914 33.2565 120.085 33.2565C119.221 33.2565 118.86 33.905 118.86 34.6617Z" fill="#344665"/>
<path id="Vector_25" d="M126.967 31.0587H127.652V37.4H126.967V31.0587Z" fill="#8993A4"/>
<path id="Vector_26" d="M133.2 31.455H135.398C136.443 31.455 136.984 31.9955 136.984 32.8242C136.984 33.4367 136.695 33.833 136.119 33.9771C136.876 34.1213 137.272 34.5176 137.272 35.2742C137.272 36.1029 136.695 36.6794 135.542 36.6794H133.236V31.455H133.2ZM133.921 32.1396V33.6889H135.29C135.975 33.6889 136.227 33.3646 136.227 32.8962C136.227 32.3918 135.939 32.1396 135.29 32.1396H133.921ZM133.921 34.3374V35.9588H135.542C136.227 35.9588 136.551 35.7066 136.551 35.2022C136.551 34.6617 136.263 34.3374 135.542 34.3374H133.921Z" fill="#344665"/>
<path id="Vector_27" d="M138.389 31.1667C138.677 31.1667 138.857 31.3469 138.857 31.6351C138.857 31.9234 138.677 32.1035 138.389 32.1035C138.1 32.1035 137.92 31.9234 137.92 31.6351C137.92 31.3469 138.136 31.1667 138.389 31.1667ZM138.064 32.68H138.749V36.6434H138.064V32.68Z" fill="#344665"/>
<path id="Vector_28" d="M141.343 36.0309C141.487 36.0309 141.667 35.9948 141.776 35.9588V36.6073C141.667 36.6434 141.523 36.6794 141.307 36.6794C140.442 36.6794 140.046 36.175 140.046 35.4544V33.3286H139.397V32.68H140.046V31.8513H140.695V32.68H141.739V33.3286H140.695V35.4183C140.695 35.7786 140.911 36.0309 141.343 36.0309Z" fill="#344665"/>
<path id="Vector_29" d="M143.325 35.9588V36.6434H142.64V31.0587H143.325V33.4367C143.577 32.8962 144.046 32.644 144.658 32.644C145.703 32.644 146.243 33.5448 146.243 34.6977C146.243 35.8147 145.703 36.7515 144.586 36.7515C144.01 36.7515 143.541 36.4632 143.325 35.9588ZM144.478 33.2565C143.865 33.2565 143.325 33.6529 143.325 34.5176V34.8419C143.325 35.7066 143.829 36.1029 144.406 36.1029C145.163 36.1029 145.559 35.5985 145.559 34.6617C145.559 33.7249 145.163 33.2565 144.478 33.2565Z" fill="#344665"/>
<path id="Vector_30" d="M146.964 32.68H147.648V35.058C147.648 35.7786 147.937 36.1029 148.585 36.1029C149.234 36.1029 149.666 35.6705 149.666 34.8779V32.68H150.351V36.6434H149.666V35.9948C149.414 36.4632 148.946 36.7154 148.405 36.7154C147.504 36.7154 146.964 36.1029 146.964 34.986V32.68Z" fill="#344665"/>
<path id="Vector_31" d="M154.134 36.5713C153.882 36.7154 153.521 36.7515 153.161 36.7515C151.756 36.7515 151.107 35.8867 151.107 34.6977C151.107 33.5087 151.756 32.644 153.161 32.644C153.521 32.644 153.81 32.68 154.098 32.8241V33.4727C153.846 33.3646 153.558 33.2925 153.197 33.2925C152.152 33.2925 151.756 33.9411 151.756 34.6977C151.756 35.4544 152.188 36.1029 153.233 36.1029C153.63 36.1029 153.882 36.0309 154.134 35.9588V36.5713Z" fill="#344665"/>
<path id="Vector_32" d="M154.927 36.6794V31.0587H155.611V34.5536L157.305 32.7161H158.206L156.332 34.6617L158.278 36.6794H157.341L155.611 34.8419V36.6794H154.927Z" fill="#344665"/>
<path id="Vector_33" d="M160.547 36.7515C159.07 36.7515 158.422 35.8867 158.422 34.6977C158.422 33.5087 159.07 32.644 160.295 32.644C161.52 32.644 162.025 33.5087 162.025 34.6977V35.022H159.142C159.25 35.7066 159.683 36.1389 160.619 36.1389C161.088 36.1389 161.484 36.0669 161.808 35.9228V36.5353C161.448 36.6794 160.944 36.7515 160.547 36.7515ZM159.07 34.4095H161.268C161.232 33.6889 160.908 33.2565 160.223 33.2565C159.539 33.2205 159.142 33.6889 159.07 34.4095Z" fill="#344665"/>
<path id="Vector_34" d="M164.367 36.0309C164.511 36.0309 164.691 35.9948 164.799 35.9588V36.6073C164.691 36.6434 164.547 36.6794 164.331 36.6794C163.466 36.6794 163.069 36.175 163.069 35.4544V33.3286H162.421V32.68H163.069V31.8513H163.718V32.68H164.763V33.3286H163.718V35.4183C163.754 35.7786 163.934 36.0309 164.367 36.0309Z" fill="#344665"/>
</g>
<g id="Group_5">
<g id="Group_6">
<g id="Group_7">
<g id="Group_8">
<path id="Vector_35" d="M122.031 18.0517C122.031 14.6288 120.194 13.0074 115.077 11.8905C112.231 11.278 111.546 10.6294 111.546 9.72868C111.546 8.61174 112.555 8.10732 114.429 8.10732C116.699 8.10732 118.933 8.7919 121.058 9.76472V5.26092C119.581 4.50428 117.275 3.9278 114.573 3.9278C109.493 3.9278 106.862 6.12565 106.862 9.76472C106.862 12.6471 108.196 14.9531 113.456 15.9619C116.591 16.6105 117.239 17.1149 117.239 18.1598C117.239 19.1686 116.591 19.8172 114.357 19.8172C111.799 19.8172 108.736 18.9525 106.754 17.7635V22.4834C108.34 23.2761 110.429 24.1408 114.321 24.1408C119.833 24.1408 122.031 21.6908 122.031 18.0517Z" fill="#7A869A"/>
<path id="Vector_36" d="M177.446 4.21603V23.8526H181.625V8.89998L183.391 12.8633L189.3 23.8526H194.56V4.21603H190.381V16.8987L188.795 13.2236L184.039 4.21603H177.446Z" fill="#7A869A"/>
<path id="Vector_37" d="M150.892 4.21603H146.316V23.8166H150.892V4.21603Z" fill="#7A869A"/>
<path id="Vector_38" d="M141.019 18.0517C141.019 14.6288 139.182 13.0074 134.065 11.8905C131.219 11.278 130.534 10.6294 130.534 9.72868C130.534 8.61174 131.543 8.10732 133.417 8.10732C135.687 8.10732 137.92 8.7919 140.046 9.76472V5.26092C138.569 4.50428 136.263 3.9278 133.561 3.9278C128.48 3.9278 125.85 6.12565 125.85 9.76472C125.85 12.6471 127.183 14.9531 132.444 15.9619C135.578 16.6105 136.227 17.1149 136.227 18.1598C136.227 19.1686 135.578 19.8172 133.345 19.8172C130.786 19.8172 127.724 18.9525 125.742 17.7635V22.4834C127.328 23.2761 129.417 24.1408 133.309 24.1408C138.857 24.1408 141.019 21.6908 141.019 18.0517Z" fill="#7A869A"/>
<path id="Vector_39" d="M71.4084 4.21603V23.8526H80.7763L82.2536 19.601H75.9843V4.21603H71.4084Z" fill="#7A869A"/>
<path id="Vector_40" d="M52.8528 4.21603V8.46762H57.9331V23.8526H62.5089V8.46762H67.9495V4.21603H52.8528Z" fill="#7A869A"/>
</g>
</g>
<path id="Vector_41" d="M46.1871 4.21603H40.17L33.3242 23.8166H38.5486L39.5214 20.5018C40.6744 20.826 41.8994 21.0422 43.1965 21.0422C44.4576 21.0422 45.6826 20.8621 46.8716 20.5018L47.8444 23.8166H53.0689L46.1871 4.21603ZM43.1605 17.0068C42.2958 17.0068 41.431 16.8627 40.6384 16.6465L43.1605 8.07128L45.6826 16.6465C44.89 16.8627 44.0613 17.0068 43.1605 17.0068Z" fill="#7A869A"/>
<path id="Vector_42" d="M96.9898 4.21603H90.9727L84.127 23.8166H89.3514L90.3242 20.5018C91.4771 20.826 92.7022 21.0422 93.9993 21.0422C95.2603 21.0422 96.4854 20.8621 97.6744 20.5018L98.6472 23.8166H103.872L96.9898 4.21603ZM93.9632 17.0068C93.0985 17.0068 92.2338 16.8627 91.4411 16.6465L93.9632 8.07128L96.4854 16.6465C95.6927 16.8627 94.828 17.0068 93.9632 17.0068Z" fill="#7A869A"/>
<path id="Vector_43" d="M167.321 4.21603H161.304L154.458 23.8166H159.683L160.655 20.5018C161.808 20.826 163.033 21.0422 164.331 21.0422C165.592 21.0422 166.817 20.8621 168.006 20.5018L168.978 23.8166H174.203L167.321 4.21603ZM164.331 17.0068C163.466 17.0068 162.601 16.8627 161.808 16.6465L164.331 8.07128L166.853 16.6465C166.024 16.8627 165.195 17.0068 164.331 17.0068Z" fill="#7A869A"/>
</g>
</g>
</g>
</g>
<defs>
<linearGradient id="paint0_linear" x1="10.2781" y1="12.8168" x2="4.1056" y2="23.5079" gradientUnits="userSpaceOnUse">
<stop stop-color="#344563"/>
<stop offset="0.9228" stop-color="#7A869A"/>
</linearGradient>
</defs>
</svg>
